<svg width="100%" height="100%" viewBox="0 0 14 19" fill="none" xmlns="http://www.w3.org/2000/svg">
<path d="M4.7999 0.556641C4.21643 0.556641 3.65685 0.788426 3.24427 1.20101C2.83169 1.61359 2.5999 2.17316 2.5999 2.75664V13.7566C2.5999 14.3401 2.83169 14.8997 3.24427 15.3123C3.65685 15.7249 4.21643 15.9566 4.7999 15.9566H11.3999C11.9834 15.9566 12.543 15.7249 12.9555 15.3123C13.3681 14.8997 13.5999 14.3401 13.5999 13.7566V2.75664C13.5999 2.17316 13.3681 1.61359 12.9555 1.20101C12.543 0.788426 11.9834 0.556641 11.3999 0.556641H4.7999ZM3.6999 2.75664C3.6999 2.4649 3.81579 2.18511 4.02208 1.97882C4.22837 1.77253 4.50816 1.65664 4.7999 1.65664H11.3999C11.6916 1.65664 11.9714 1.77253 12.1777 1.97882C12.384 2.18511 12.4999 2.4649 12.4999 2.75664V13.7566C12.4999 14.0484 12.384 14.3282 12.1777 14.5345C11.9714 14.7407 11.6916 14.8566 11.3999 14.8566H4.7999C4.50816 14.8566 4.22837 14.7407 4.02208 14.5345C3.81579 14.3282 3.6999 14.0484 3.6999 13.7566V2.75664ZM0.399902 4.95664C0.399912 4.57047 0.501571 4.1911 0.69466 3.85667C0.88775 3.52224 1.16547 3.24453 1.4999 3.05144V14.3066C1.4999 15.036 1.78963 15.7355 2.30536 16.2512C2.82108 16.7669 3.52056 17.0566 4.2499 17.0566H11.1051C10.912 17.3911 10.6343 17.6688 10.2999 17.8619C9.96544 18.055 9.58607 18.1566 9.1999 18.1566H4.2499C3.22882 18.1566 2.24956 17.751 1.52754 17.029C0.805526 16.307 0.399902 15.3277 0.399902 14.3066V4.95664Z" fill="white"/>
</svg>
