<svg width="100%" height="100%" viewBox="0 0 10 14" fill="none" xmlns="http://www.w3.org/2000/svg">
<path d="M1.66667 1.99967C1.66667 1.55765 1.84226 1.13372 2.15482 0.821163C2.46738 0.508602 2.89131 0.333008 3.33333 0.333008H8.33333C8.77536 0.333008 9.19928 0.508602 9.51184 0.821163C9.8244 1.13372 10 1.55765 10 1.99967V10.333C10 10.775 9.8244 11.199 9.51184 11.5115C9.19928 11.8241 8.77536 11.9997 8.33333 11.9997H3.33333C2.89131 11.9997 2.46738 11.8241 2.15482 11.5115C1.84226 11.199 1.66667 10.775 1.66667 10.333V1.99967ZM0 3.66634C7.43203e-06 3.37379 0.0770215 3.08639 0.223302 2.83303C0.369582 2.57967 0.579974 2.36928 0.833333 2.22301V10.7497C0.833333 11.3022 1.05283 11.8321 1.44353 12.2228C1.83423 12.6135 2.36413 12.833 2.91667 12.833H8.11C7.96372 13.0864 7.75333 13.2968 7.49998 13.443C7.24662 13.5893 6.95922 13.6663 6.66667 13.6663H2.91667C2.14312 13.6663 1.40125 13.3591 0.854272 12.8121C0.307291 12.2651 0 11.5232 0 10.7497V3.66634Z" fill="#070707"/>
</svg>
