<svg width="100%" height="100%" viewBox="0 0 13 17" fill="none" xmlns="http://www.w3.org/2000/svg">
<path d="M2.08333 2.08333C2.08333 1.5308 2.30283 1.00089 2.69353 0.610194C3.08423 0.219493 3.61413 0 4.16667 0H10.4167C10.9692 0 11.4991 0.219493 11.8898 0.610194C12.2805 1.00089 12.5 1.5308 12.5 2.08333V12.5C12.5 13.0525 12.2805 13.5824 11.8898 13.9731C11.4991 14.3638 10.9692 14.5833 10.4167 14.5833H4.16667C3.61413 14.5833 3.08423 14.3638 2.69353 13.9731C2.30283 13.5824 2.08333 13.0525 2.08333 12.5V2.08333ZM0 4.16667C9.29004e-06 3.80097 0.0962768 3.44173 0.279127 3.12503C0.461977 2.80833 0.724968 2.54535 1.04167 2.3625V13.0208C1.04167 13.7115 1.31603 14.3739 1.80441 14.8623C2.29279 15.3506 2.95517 15.625 3.64583 15.625H10.1375C9.95465 15.9417 9.69167 16.2047 9.37497 16.3875C9.05827 16.5704 8.69903 16.6667 8.33333 16.6667H3.64583C2.6789 16.6667 1.75157 16.2826 1.06784 15.5988C0.384114 14.9151 0 13.9878 0 13.0208V4.16667Z" fill="white"/>
</svg>
