<svg width="100%" height="100%" viewBox="0 0 33 46" fill="none" xmlns="http://www.w3.org/2000/svg">
<path d="M0 36.5665L0.274315 36.1825L13.2476 11.5659L13.275 11.3053L7.55627 0.563083C7.07689 -0.336743 5.72793 -0.109202 5.57081 0.898127L0 36.5665Z" fill="#FFC24A"/>
<path d="M0.164062 36.2774L0.371446 35.8728L13.209 11.5142L7.50429 0.728327C7.03021 -0.162066 5.82622 0.0649573 5.67065 1.06169L0.164062 36.2774Z" fill="#FFA712"/>
<path d="M0.164062 36.2774L0.371446 35.8728L13.209 11.5142L7.50429 0.728327C7.03021 -0.162066 5.82622 0.0649573 5.67065 1.06169L0.164062 36.2774Z" fill="#FEA511"/>
<path d="M17.4525 19.4297L21.7107 15.0688L17.4512 6.93753C17.0469 6.16782 15.918 6.16549 15.518 6.93753L13.2422 11.2773V11.6469L17.4524 19.4297H17.4525Z" fill="#F4BD62"/>
<path d="M17.3705 19.2553L21.5103 15.0157L17.3705 7.13288C16.9774 6.38462 16.0224 6.30619 15.6335 7.05665L13.3458 11.4639L13.2773 11.6893L17.3705 19.2553Z" fill="#FEA511"/>
<path d="M0 36.5694L0.124301 36.4443L0.576023 36.2608L17.1767 19.7218L17.387 19.1493L13.2458 11.2578L0 36.5694Z" fill="#F6820C"/>
<path d="M17.3705 19.2553L21.5103 15.0157L17.3705 7.13288C16.9774 6.38462 16.0224 6.30619 15.6335 7.05665L13.3458 11.4639L13.2773 11.6893L17.3705 19.2553Z" fill="#FFA50E"/>
<path d="M32.8627 36.4571L28.605 10.2348C28.4719 9.41429 27.6284 9.07485 27.0411 9.66315L0.164062 36.514L14.9379 44.7716C15.3987 45.0289 15.9176 45.164 16.4453 45.1641C16.9731 45.1643 17.492 45.0294 17.9529 44.7724L32.8629 36.457L32.8627 36.4571Z" fill="#FCCA3F"/>
<path d="M17.976 44.8995L33 36.5206L28.7097 10.0976C28.5754 9.27087 27.5612 8.94409 26.9695 9.53679L0 36.5586L14.9378 44.8989C15.4021 45.1581 15.9251 45.2943 16.4568 45.2944C16.9886 45.2945 17.5116 45.1586 17.976 44.8995Z" fill="#FDE068"/>
<path d="M17.9757 44.6553C17.5113 44.9143 16.9884 45.0502 16.4566 45.0501C15.9249 45.05 15.402 44.9138 14.9377 44.6546L0.120166 36.4342L0 36.5612L14.9377 44.9016C15.402 45.1608 15.9249 45.2969 16.4567 45.297C16.9885 45.2972 17.5114 45.1612 17.9758 44.9022L32.9999 36.5233L32.963 36.2969L17.9758 44.6554L17.9757 44.6553Z" fill="#EEAB37"/>
</svg>
