<svg width="39" height="48" viewBox="0 0 39 48" fill="none" xmlns="http://www.w3.org/2000/svg">
<path d="M9 30.2675L9.17455 30.0231L17.4295 14.3595L17.447 14.1936L13.8081 7.35829C13.5031 6.78573 12.6447 6.93051 12.5447 7.57148L9 30.2675Z" fill="#FFC24A"/>
<path d="M9.10547 30.0835L9.23743 29.8261L17.406 14.3266L13.7761 7.46345C13.4744 6.89689 12.7083 7.04134 12.6093 7.67557L9.10547 30.0835Z" fill="#FFA712"/>
<g filter="url(#filter0_d_2475_18137)">
<path d="M9.10547 30.0835L9.23743 29.8261L17.406 14.3266L13.7761 7.46345C13.4744 6.89689 12.7083 7.04134 12.6093 7.67557L9.10547 30.0835Z" fill="#FEA511"/>
</g>
<path d="M20.1048 19.3636L22.8143 16.5887L20.104 11.4148C19.8468 10.925 19.1284 10.9235 18.8739 11.4148L17.4258 14.1762V14.4114L20.1048 19.3636H20.1048Z" fill="#F4BD62"/>
<path d="M20.0537 19.2527L22.6879 16.5549L20.0537 11.5391C19.8036 11.0629 19.1959 11.013 18.9485 11.4906L17.4928 14.2949L17.4492 14.4383L20.0537 19.2527Z" fill="#FEA511"/>
<g filter="url(#filter1_d_2475_18137)">
<path d="M9 30.27L9.07909 30.1904L9.36653 30.0736L19.9296 19.5497L20.0635 19.1854L17.4284 14.1641L9 30.27Z" fill="#F6820C"/>
</g>
<g filter="url(#filter2_d_2475_18137)">
<path d="M20.0537 19.2527L22.6879 16.5549L20.0537 11.5391C19.8036 11.0629 19.1959 11.013 18.9485 11.4906L17.4928 14.2949L17.4492 14.4383L20.0537 19.2527Z" fill="#FFA50E"/>
</g>
<path d="M29.9118 30.1984L27.2026 13.513C27.1179 12.9909 26.5812 12.7749 26.2075 13.1493L9.10547 30.2346L18.5062 35.489C18.7994 35.6527 19.1295 35.7387 19.4653 35.7388C19.8011 35.7388 20.1314 35.653 20.4246 35.4895L29.9119 30.1984L29.9118 30.1984Z" fill="#FCCA3F"/>
<g filter="url(#filter3_d_2475_18137)">
<path d="M20.4382 35.569L29.9981 30.2374L27.2681 13.4243C27.1827 12.8982 26.5374 12.6903 26.1608 13.0674L9 30.2616L18.505 35.5685C18.8005 35.7335 19.1332 35.8201 19.4716 35.8202C19.8099 35.8203 20.1427 35.7338 20.4382 35.569Z" fill="#FDE068"/>
</g>
<path d="M20.4381 35.4123C20.1426 35.5771 19.8098 35.6635 19.4715 35.6635C19.1331 35.6634 18.8004 35.5768 18.505 35.4118L9.07646 30.1811L9 30.262L18.505 35.569C18.8004 35.7339 19.1331 35.8205 19.4715 35.8206C19.8099 35.8207 20.1426 35.7342 20.4381 35.5694L29.998 30.2378L29.9746 30.0938L20.4381 35.4123L20.4381 35.4123Z" fill="#EEAB37"/>
<defs>
<filter id="filter0_d_2475_18137" x="0.105469" y="0.359375" width="26.3008" height="40.9766" filterUnits="userSpaceOnUse" color-interpolation-filters="sRGB">
<feFlood flood-opacity="0" result="BackgroundImageFix"/>
<feColorMatrix in="SourceAlpha" type="matrix" values="0 0 0 0 0 0 0 0 0 0 0 0 0 0 0 0 0 0 127 0" result="hardAlpha"/>
<feOffset dy="2.25"/>
<feGaussianBlur stdDeviation="4.5"/>
<feComposite in2="hardAlpha" operator="out"/>
<feColorMatrix type="matrix" values="0 0 0 0 0.956863 0 0 0 0 0.505882 0 0 0 0 0.0509804 0 0 0 1 0"/>
<feBlend mode="normal" in2="BackgroundImageFix" result="effect1_dropShadow_2475_18137"/>
<feBlend mode="normal" in="SourceGraphic" in2="effect1_dropShadow_2475_18137" result="shape"/>
</filter>
<filter id="filter1_d_2475_18137" x="0" y="7.41406" width="29.0625" height="34.1094" filterUnits="userSpaceOnUse" color-interpolation-filters="sRGB">
<feFlood flood-opacity="0" result="BackgroundImageFix"/>
<feColorMatrix in="SourceAlpha" type="matrix" values="0 0 0 0 0 0 0 0 0 0 0 0 0 0 0 0 0 0 127 0" result="hardAlpha"/>
<feOffset dy="2.25"/>
<feGaussianBlur stdDeviation="4.5"/>
<feComposite in2="hardAlpha" operator="out"/>
<feColorMatrix type="matrix" values="0 0 0 0 0.956863 0 0 0 0 0.505882 0 0 0 0 0.0509804 0 0 0 1 0"/>
<feBlend mode="normal" in2="BackgroundImageFix" result="effect1_dropShadow_2475_18137"/>
<feBlend mode="normal" in="SourceGraphic" in2="effect1_dropShadow_2475_18137" result="shape"/>
</filter>
<filter id="filter2_d_2475_18137" x="8.44922" y="4.40625" width="23.2383" height="26.0938" filterUnits="userSpaceOnUse" color-interpolation-filters="sRGB">
<feFlood flood-opacity="0" result="BackgroundImageFix"/>
<feColorMatrix in="SourceAlpha" type="matrix" values="0 0 0 0 0 0 0 0 0 0 0 0 0 0 0 0 0 0 127 0" result="hardAlpha"/>
<feOffset dy="2.25"/>
<feGaussianBlur stdDeviation="4.5"/>
<feComposite in2="hardAlpha" operator="out"/>
<feColorMatrix type="matrix" values="0 0 0 0 0.956863 0 0 0 0 0.505882 0 0 0 0 0.0509804 0 0 0 1 0"/>
<feBlend mode="normal" in2="BackgroundImageFix" result="effect1_dropShadow_2475_18137"/>
<feBlend mode="normal" in="SourceGraphic" in2="effect1_dropShadow_2475_18137" result="shape"/>
</filter>
<filter id="filter3_d_2475_18137" x="0" y="6.125" width="39" height="40.9453" filterUnits="userSpaceOnUse" color-interpolation-filters="sRGB">
<feFlood flood-opacity="0" result="BackgroundImageFix"/>
<feColorMatrix in="SourceAlpha" type="matrix" values="0 0 0 0 0 0 0 0 0 0 0 0 0 0 0 0 0 0 127 0" result="hardAlpha"/>
<feOffset dy="2.25"/>
<feGaussianBlur stdDeviation="4.5"/>
<feComposite in2="hardAlpha" operator="out"/>
<feColorMatrix type="matrix" values="0 0 0 0 0.956863 0 0 0 0 0.505882 0 0 0 0 0.0509804 0 0 0 1 0"/>
<feBlend mode="normal" in2="BackgroundImageFix" result="effect1_dropShadow_2475_18137"/>
<feBlend mode="normal" in="SourceGraphic" in2="effect1_dropShadow_2475_18137" result="shape"/>
</filter>
</defs>
</svg>
