<svg width="100%" height="100%" viewBox="0 0 83 83" fill="none" xmlns="http://www.w3.org/2000/svg">
<path d="M57.0625 41.5C57.0625 45.0988 56.868 48.568 56.5275 51.875H26.4725C26.132 48.568 25.7916 45.0988 25.7916 41.5C25.7916 37.9012 26.132 34.432 26.4725 31.125H56.5275C56.868 34.432 57.0625 37.9012 57.0625 41.5V41.5ZM81.6869 31.125C82.5461 34.4482 83 37.9174 83 41.5C83 45.0826 82.5461 48.5518 81.6869 51.875H61.7312C62.0717 48.5355 62.25 44.9205 62.25 41.5C62.25 37.9336 62.0717 34.4645 61.7312 31.125H81.6869ZM79.9848 25.9375H61.0666C59.4455 15.5852 56.2357 6.9091 52.102 1.36853C64.8113 4.71576 75.1215 13.9317 79.9848 25.9375ZM55.8143 25.9375H27.1857C28.1746 20.0367 29.6984 14.8136 31.5627 10.5938C33.2648 6.76644 35.1615 3.98951 36.9934 2.23873C38.809 0.515184 40.3166 0 41.5 0C42.6834 0 44.191 0.515184 46.0066 2.23873C47.8385 3.98951 49.7352 6.76644 51.4373 10.5938C53.3016 14.8136 54.8254 20.0367 55.8143 25.9375V25.9375ZM3.01686 25.9375C7.87689 13.9317 18.1887 4.71576 30.898 1.36853C26.7643 6.9091 23.5545 15.5852 21.9334 25.9375H3.01686V25.9375ZM21.2687 31.125C20.9283 34.4645 20.6041 37.9336 20.6041 41.5C20.6041 44.9205 20.9283 48.5355 21.2687 51.875H1.30741C0.453906 48.5518 0 45.0826 0 41.5C0 37.9174 0.453906 34.4482 1.30741 31.125H21.2687V31.125ZM31.5627 72.398C29.6984 68.1832 28.1746 62.9633 27.1857 57.0625H55.8143C54.8254 62.9633 53.3016 68.1832 51.4373 72.398C49.7352 76.24 47.8385 79.0121 46.0066 80.7629C44.191 82.4813 42.6834 83 41.3541 83C40.3166 83 38.809 82.4813 36.9934 80.7629C35.1615 79.0121 33.2648 76.24 31.5627 72.398V72.398ZM30.898 81.6383C18.1887 78.2826 7.87689 69.0748 3.01686 57.0625H21.9334C23.5545 67.4213 26.7643 76.0941 30.898 81.6383V81.6383ZM52.102 81.6383C56.2357 76.0941 59.4455 67.4213 61.0666 57.0625H79.9848C75.1215 69.0748 64.8113 78.2826 52.102 81.6383Z" fill="#070707"/>
</svg>
