<svg width="100%" height="100%" viewBox="0 0 69 68" fill="none" xmlns="http://www.w3.org/2000/svg">
<circle cx="34.5" cy="34" r="34" fill="#F7DF1E"/>
<path d="M23.0865 49.3437C27.8224 49.3437 31.0688 46.823 31.0688 41.285V23.0288H25.7218V41.2086C25.7218 43.8821 24.6142 44.5696 22.8573 44.5696C21.0241 44.5696 20.2602 43.3092 19.42 41.8197L15.066 44.455C16.3263 47.1285 18.8089 49.3437 23.0865 49.3437ZM43.7143 49.3437C48.7939 49.3437 52.575 46.7084 52.575 41.8961C52.575 37.4275 50.0161 35.4415 45.4711 33.4937L44.1344 32.9208C41.8428 31.9277 40.8498 31.2785 40.8498 29.6744C40.8498 28.3758 41.8428 27.3828 43.4087 27.3828C44.9364 27.3828 45.9295 28.0321 46.8461 29.6744L51.0091 27.0008C49.2522 23.9072 46.8079 22.7232 43.4087 22.7232C38.6346 22.7232 35.5792 25.7787 35.5792 29.7889C35.5792 34.1429 38.1381 36.2054 41.9956 37.8477L43.3323 38.4205C45.7767 39.4899 47.228 40.1392 47.228 41.9725C47.228 43.5002 45.8149 44.6078 43.5997 44.6078C40.9644 44.6078 39.4748 43.2329 38.3291 41.3614L33.9751 43.8821C35.541 46.9758 38.7492 49.3437 43.7143 49.3437Z" fill="#070707"/>
</svg>
