<svg width="100%" height="100%" viewBox="0 0 194 194" fill="none" xmlns="http://www.w3.org/2000/svg">
<path fill-rule="evenodd" clip-rule="evenodd" d="M2.39907e-06 16.2078C2.39907e-06 11.9093 1.70761 7.78674 4.74716 4.74718C7.78672 1.70763 11.9092 2.16073e-05 16.2078 2.16073e-05H177.775C179.905 -0.00345762 182.015 0.413267 183.984 1.22634C185.953 2.03941 187.742 3.23285 189.249 4.73835C190.756 6.24385 191.952 8.03183 192.767 9.99993C193.582 11.968 194.001 14.0776 194 16.2078V177.775C194.002 179.905 193.584 182.015 192.77 183.984C191.956 185.954 190.762 187.743 189.256 189.25C187.75 190.757 185.961 191.952 183.993 192.767C182.024 193.582 179.914 194.001 177.783 194H16.2078C14.0786 194 11.9703 193.58 10.0033 192.765C8.03632 191.95 6.24919 190.756 4.74404 189.25C3.23889 187.744 2.04522 185.956 1.23122 183.989C0.417217 182.021 -0.00115602 179.913 2.39907e-06 177.783V16.2078ZM76.7887 73.9669H103.058V87.1589C106.85 79.5753 116.55 72.75 131.126 72.75C159.071 72.75 165.694 87.8556 165.694 115.571V166.911H137.414V121.885C137.414 106.1 133.622 97.194 123.992 97.194C110.633 97.194 105.077 106.797 105.077 121.885V166.911H76.7887V73.9669ZM28.2887 165.702H56.5775V72.75H28.2887V165.694V165.702ZM60.625 42.4331C60.6783 44.8552 60.2473 47.2636 59.3573 49.5169C58.4672 51.7702 57.1361 53.823 55.4419 55.5548C53.7478 57.2867 51.7248 58.6627 49.4916 59.6022C47.2585 60.5416 44.8602 61.0255 42.4375 61.0255C40.0148 61.0255 37.6165 60.5416 35.3834 59.6022C33.1502 58.6627 31.1272 57.2867 29.433 55.5548C27.7389 53.823 26.4077 51.7702 25.5177 49.5169C24.6277 47.2636 24.1967 44.8552 24.25 42.4331C24.3547 37.6788 26.3168 33.1545 29.7163 29.8292C33.1157 26.5038 37.6821 24.6417 42.4375 24.6417C47.1929 24.6417 51.7593 26.5038 55.1587 29.8292C58.5581 33.1545 60.5203 37.6788 60.625 42.4331V42.4331Z" fill="white"/>
</svg>
