<svg width="100%" height="100%" viewBox="0 0 140 20" fill="none" xmlns="http://www.w3.org/2000/svg">
<path d="M36.86 16.27C36.08 16.27 35.42 16.1125 34.88 15.7975C34.34 15.4675 33.9275 15.04 33.6425 14.515C33.3575 13.99 33.215 13.42 33.215 12.805C33.215 11.545 33.755 10.585 34.835 9.925C35.93 9.25 37.76 8.845 40.325 8.71C40.28 8.44 40.1675 8.2225 39.9875 8.0575C39.8075 7.8775 39.56 7.75 39.245 7.675C38.945 7.585 38.585 7.54 38.165 7.54C37.85 7.54 37.5275 7.5775 37.1975 7.6525C36.8675 7.7125 36.515 7.8175 36.14 7.9675C35.78 8.1025 35.375 8.275 34.925 8.485L33.575 5.965C34.145 5.65 34.7225 5.38 35.3075 5.155C35.8925 4.93 36.485 4.765 37.085 4.66C37.685 4.54 38.3 4.48 38.93 4.48C39.995 4.48 40.9175 4.6675 41.6975 5.0425C42.4925 5.4025 43.1075 5.9725 43.5425 6.7525C43.9775 7.5175 44.195 8.515 44.195 9.745V16H41.045L40.775 14.83H40.685C40.13 15.235 39.53 15.58 38.885 15.865C38.24 16.135 37.565 16.27 36.86 16.27ZM38.12 13.3C38.57 13.3 38.975 13.2175 39.335 13.0525C39.695 12.8725 40.025 12.67 40.325 12.445V11.005C39.41 11.035 38.705 11.1175 38.21 11.2525C37.715 11.3875 37.37 11.5675 37.175 11.7925C36.995 12.0025 36.905 12.235 36.905 12.49C36.905 12.655 36.95 12.805 37.04 12.94C37.13 13.06 37.265 13.15 37.445 13.21C37.625 13.27 37.85 13.3 38.12 13.3ZM47.8312 16V4.75H51.0037L51.2962 7.135H51.3862C51.9262 6.205 52.5787 5.53 53.3437 5.11C54.1237 4.69 54.9337 4.48 55.7737 4.48C56.2987 4.48 56.7037 4.525 56.9887 4.615C57.2887 4.69 57.5962 4.795 57.9112 4.93L57.1462 8.17C56.8162 8.065 56.5087 7.99 56.2237 7.945C55.9387 7.885 55.5937 7.855 55.1887 7.855C54.5437 7.855 53.9062 8.05 53.2762 8.44C52.6462 8.815 52.1212 9.475 51.7012 10.42V16H47.8312ZM67.6674 16.27C66.4374 16.27 65.4549 16.06 64.7199 15.64C63.9849 15.22 63.4524 14.635 63.1224 13.885C62.7924 13.12 62.6274 12.235 62.6274 11.23V7.765H59.9274V4.885L62.8074 4.75L63.3024 1.375H66.4974V4.75H70.9524V7.765H66.4974V11.1625C66.4974 11.6875 66.5799 12.1075 66.7449 12.4225C66.9099 12.7225 67.1499 12.94 67.4649 13.075C67.7949 13.195 68.1999 13.255 68.6799 13.255C69.0699 13.255 69.4299 13.225 69.7599 13.165C70.1049 13.09 70.4274 13 70.7274 12.895L71.4024 15.685C70.9074 15.82 70.3524 15.9475 69.7374 16.0675C69.1224 16.2025 68.4324 16.27 67.6674 16.27ZM73.9136 16V0.339999H77.7836V3.985L77.5586 5.965H77.6486C78.0086 5.605 78.4811 5.2675 79.0661 4.9525C79.6661 4.6375 80.3786 4.48 81.2036 4.48C82.4486 4.48 83.3486 4.9 83.9036 5.74C84.4736 6.565 84.7586 7.675 84.7586 9.07V16H80.8886V9.565C80.8886 8.935 80.7911 8.4775 80.5961 8.1925C80.4161 7.9075 80.0786 7.765 79.5836 7.765C79.2236 7.765 78.9086 7.84 78.6386 7.99C78.3686 8.14 78.0836 8.35 77.7836 8.62V16H73.9136ZM90.8248 16.27C90.0448 16.27 89.3848 16.1125 88.8448 15.7975C88.3048 15.4675 87.8923 15.04 87.6073 14.515C87.3223 13.99 87.1798 13.42 87.1798 12.805C87.1798 11.545 87.7198 10.585 88.7998 9.925C89.8948 9.25 91.7248 8.845 94.2898 8.71C94.2448 8.44 94.1323 8.2225 93.9523 8.0575C93.7723 7.8775 93.5248 7.75 93.2098 7.675C92.9098 7.585 92.5498 7.54 92.1298 7.54C91.8148 7.54 91.4923 7.5775 91.1623 7.6525C90.8323 7.7125 90.4798 7.8175 90.1048 7.9675C89.7448 8.1025 89.3398 8.275 88.8898 8.485L87.5398 5.965C88.1098 5.65 88.6873 5.38 89.2723 5.155C89.8573 4.93 90.4498 4.765 91.0498 4.66C91.6498 4.54 92.2648 4.48 92.8948 4.48C93.9598 4.48 94.8823 4.6675 95.6623 5.0425C96.4573 5.4025 97.0723 5.9725 97.5073 6.7525C97.9423 7.5175 98.1598 8.515 98.1598 9.745V16H95.0098L94.7398 14.83H94.6498C94.0948 15.235 93.4948 15.58 92.8498 15.865C92.2048 16.135 91.5298 16.27 90.8248 16.27ZM92.0848 13.3C92.5348 13.3 92.9398 13.2175 93.2998 13.0525C93.6598 12.8725 93.9898 12.67 94.2898 12.445V11.005C93.3748 11.035 92.6698 11.1175 92.1748 11.2525C91.6798 11.3875 91.3348 11.5675 91.1398 11.7925C90.9598 12.0025 90.8698 12.235 90.8698 12.49C90.8698 12.655 90.9148 12.805 91.0048 12.94C91.0948 13.06 91.2298 13.15 91.4098 13.21C91.5898 13.27 91.8148 13.3 92.0848 13.3ZM100.896 16V0.339999H104.766V8.755H104.856L108.276 4.75H112.461L104.766 13.255V16H100.896ZM108.546 16L105.711 11.23L107.916 8.845L112.731 16H108.546ZM114.387 19.6L121.812 0.0249991H125.007L117.582 19.6H114.387ZM128.553 15.46V11.995L134.223 8.575V8.485L128.553 5.065V1.6L137.373 7.225V9.835L128.553 15.46Z" fill="white"/>
<path d="M29.9412 4.53061V7.95918L22.8235 3.79592H22.1176L18.1765 6.30612C17.7529 7.43265 18.6275 7.59184 19.1176 7.53061L22.5294 5.44898L30 9.91837V13.5306L22.5294 18L15.0588 13.5306V9.97959L22.1765 14.3878H22.8235L26.8235 11.8163C27.1176 10.7755 26.4706 10.4694 25.8235 10.6531L22.5294 12.6122L15 8.14286V4.40816L22.5294 0L29.9412 4.53061Z" fill="white"/>
<path d="M11.385 15.46L2.565 9.835V7.225L11.385 1.6V5.065L5.715 8.485V8.575L11.385 11.995V15.46Z" fill="white"/>
</svg>
