<svg width="100%" height="100%" viewBox="0 0 108 17" fill="none" xmlns="http://www.w3.org/2000/svg">
<path d="M9.108 13.568L2.052 9.068V6.98L9.108 2.48V5.252L4.572 7.988V8.06L9.108 10.796V13.568ZM16.121 14.216C15.353 14.216 14.567 14.078 13.763 13.802C12.971 13.526 12.245 13.106 11.585 12.542L13.349 10.418C13.793 10.754 14.267 11.03 14.771 11.246C15.287 11.45 15.809 11.552 16.337 11.552C16.805 11.552 17.135 11.486 17.327 11.354C17.531 11.222 17.633 11.06 17.633 10.868C17.633 10.64 17.567 10.46 17.435 10.328C17.303 10.196 17.111 10.076 16.859 9.968C16.607 9.86 16.301 9.734 15.941 9.59L14.483 8.978C14.039 8.81 13.625 8.582 13.241 8.294C12.869 7.994 12.569 7.634 12.341 7.214C12.125 6.782 12.017 6.284 12.017 5.72C12.017 5.048 12.203 4.442 12.575 3.902C12.947 3.35 13.469 2.912 14.141 2.588C14.813 2.252 15.593 2.084 16.481 2.084C17.177 2.084 17.873 2.216 18.569 2.48C19.277 2.732 19.913 3.122 20.477 3.65L18.929 5.594C18.509 5.318 18.107 5.108 17.723 4.964C17.339 4.82 16.865 4.748 16.301 4.748C15.965 4.748 15.689 4.814 15.473 4.946C15.257 5.066 15.149 5.264 15.149 5.54C15.149 5.72 15.221 5.87 15.365 5.99C15.509 6.11 15.719 6.224 15.995 6.332C16.271 6.44 16.601 6.566 16.985 6.71L18.335 7.268C18.863 7.46 19.307 7.706 19.667 8.006C20.039 8.294 20.321 8.642 20.513 9.05C20.705 9.458 20.801 9.932 20.801 10.472C20.801 11.132 20.621 11.75 20.261 12.326C19.901 12.89 19.373 13.346 18.677 13.694C17.981 14.042 17.129 14.216 16.121 14.216ZM25.4739 14.216C24.8499 14.216 24.3219 14.09 23.8899 13.838C23.4579 13.574 23.1279 13.232 22.8999 12.812C22.6719 12.392 22.5579 11.936 22.5579 11.444C22.5579 10.436 22.9899 9.668 23.8539 9.14C24.7299 8.6 26.1939 8.276 28.2459 8.168C28.2099 7.952 28.1199 7.778 27.9759 7.646C27.8319 7.502 27.6339 7.4 27.3819 7.34C27.1419 7.268 26.8539 7.232 26.5179 7.232C26.2659 7.232 26.0079 7.262 25.7439 7.322C25.4799 7.37 25.1979 7.454 24.8979 7.574C24.6099 7.682 24.2859 7.82 23.9259 7.988L22.8459 5.972C23.3019 5.72 23.7639 5.504 24.2319 5.324C24.6999 5.144 25.1739 5.012 25.6539 4.928C26.1339 4.832 26.6259 4.784 27.1299 4.784C27.9819 4.784 28.7199 4.934 29.3439 5.234C29.9799 5.522 30.4719 5.978 30.8199 6.602C31.1679 7.214 31.3419 8.012 31.3419 8.996V14H28.8219L28.6059 13.064H28.5339C28.0899 13.388 27.6099 13.664 27.0939 13.892C26.5779 14.108 26.0379 14.216 25.4739 14.216ZM26.4819 11.84C26.8419 11.84 27.1659 11.774 27.4539 11.642C27.7419 11.498 28.0059 11.336 28.2459 11.156V10.004C27.5139 10.028 26.9499 10.094 26.5539 10.202C26.1579 10.31 25.8819 10.454 25.7259 10.634C25.5819 10.802 25.5099 10.988 25.5099 11.192C25.5099 11.324 25.5459 11.444 25.6179 11.552C25.6899 11.648 25.7979 11.72 25.9419 11.768C26.0859 11.816 26.2659 11.84 26.4819 11.84ZM34.2509 14V5H36.7889L37.0229 6.908H37.0949C37.5269 6.164 38.0489 5.624 38.6609 5.288C39.2849 4.952 39.9329 4.784 40.6049 4.784C41.0249 4.784 41.3489 4.82 41.5769 4.892C41.8169 4.952 42.0629 5.036 42.3149 5.144L41.7029 7.736C41.4389 7.652 41.1929 7.592 40.9649 7.556C40.7369 7.508 40.4609 7.484 40.1369 7.484C39.6209 7.484 39.1109 7.64 38.6069 7.952C38.1029 8.252 37.6829 8.78 37.3469 9.536V14H34.2509ZM50.1199 14.216C49.1359 14.216 48.3499 14.048 47.7619 13.712C47.1739 13.376 46.7479 12.908 46.4839 12.308C46.2199 11.696 46.0879 10.988 46.0879 10.184V7.412H43.9279V5.108L46.2319 5L46.6279 2.3H49.1839V5H52.7479V7.412H49.1839V10.13C49.1839 10.55 49.2499 10.886 49.3819 11.138C49.5139 11.378 49.7059 11.552 49.9579 11.66C50.2219 11.756 50.5459 11.804 50.9299 11.804C51.2419 11.804 51.5299 11.78 51.7939 11.732C52.0699 11.672 52.3279 11.6 52.5679 11.516L53.1079 13.748C52.7119 13.856 52.2679 13.958 51.7759 14.054C51.2839 14.162 50.7319 14.216 50.1199 14.216ZM55.1168 14V1.472H58.2128V4.388L58.0328 5.972H58.1048C58.3928 5.684 58.7708 5.414 59.2388 5.162C59.7188 4.91 60.2888 4.784 60.9488 4.784C61.9448 4.784 62.6648 5.12 63.1088 5.792C63.5648 6.452 63.7928 7.34 63.7928 8.456V14H60.6968V8.852C60.6968 8.348 60.6188 7.982 60.4628 7.754C60.3188 7.526 60.0488 7.412 59.6528 7.412C59.3648 7.412 59.1128 7.472 58.8968 7.592C58.6808 7.712 58.4528 7.88 58.2128 8.096V14H55.1168ZM68.6458 14.216C68.0218 14.216 67.4938 14.09 67.0618 13.838C66.6298 13.574 66.2998 13.232 66.0718 12.812C65.8438 12.392 65.7298 11.936 65.7298 11.444C65.7298 10.436 66.1618 9.668 67.0258 9.14C67.9018 8.6 69.3658 8.276 71.4178 8.168C71.3818 7.952 71.2918 7.778 71.1478 7.646C71.0038 7.502 70.8058 7.4 70.5538 7.34C70.3138 7.268 70.0258 7.232 69.6898 7.232C69.4378 7.232 69.1798 7.262 68.9158 7.322C68.6518 7.37 68.3698 7.454 68.0698 7.574C67.7818 7.682 67.4578 7.82 67.0978 7.988L66.0178 5.972C66.4738 5.72 66.9358 5.504 67.4038 5.324C67.8718 5.144 68.3458 5.012 68.8258 4.928C69.3058 4.832 69.7978 4.784 70.3018 4.784C71.1538 4.784 71.8918 4.934 72.5158 5.234C73.1518 5.522 73.6438 5.978 73.9918 6.602C74.3398 7.214 74.5138 8.012 74.5138 8.996V14H71.9938L71.7778 13.064H71.7058C71.2618 13.388 70.7818 13.664 70.2658 13.892C69.7498 14.108 69.2098 14.216 68.6458 14.216ZM69.6538 11.84C70.0138 11.84 70.3378 11.774 70.6258 11.642C70.9138 11.498 71.1778 11.336 71.4178 11.156V10.004C70.6858 10.028 70.1218 10.094 69.7258 10.202C69.3298 10.31 69.0538 10.454 68.8978 10.634C68.7538 10.802 68.6818 10.988 68.6818 11.192C68.6818 11.324 68.7178 11.444 68.7898 11.552C68.8618 11.648 68.9698 11.72 69.1138 11.768C69.2578 11.816 69.4378 11.84 69.6538 11.84ZM76.7028 14V1.472H79.7988V8.204H79.8708L82.6068 5H85.9548L79.7988 11.804V14H76.7028ZM82.8228 14L80.5548 10.184L82.3188 8.276L86.1708 14H82.8228ZM87.4958 16.88L93.4358 1.22H95.9918L90.0518 16.88H87.4958ZM98.8287 13.568V10.796L103.365 8.06V7.988L98.8287 5.252V2.48L105.885 6.98V9.068L98.8287 13.568Z" fill="white"/>
</svg>
