<svg width="100%" height="100%" viewBox="0 0 30 28" fill="none" xmlns="http://www.w3.org/2000/svg">
<path d="M30 8.435V21.793C30.0001 23.1549 29.5237 24.4653 28.6685 25.4552C27.8133 26.4452 26.6442 27.0397 25.401 27.1168L25.125 27.125H4.875C3.62979 27.1251 2.43176 26.604 1.52665 25.6687C0.62155 24.7333 0.077998 23.4546 0.00750017 22.0948L0 21.793V8.435L14.478 16.73C14.6391 16.8223 14.8182 16.8705 15 16.8705C15.1818 16.8705 15.3609 16.8223 15.522 16.73L30 8.435ZM4.875 0.875H25.125C26.3334 0.874841 27.4987 1.36554 28.3951 2.25192C29.2914 3.13831 29.8548 4.3572 29.976 5.67219L15 14.2527L0.024 5.67219C0.140285 4.40942 0.664575 3.23343 1.50262 2.3556C2.34067 1.47778 3.43752 0.955697 4.596 0.883203L4.875 0.875H25.125H4.875Z" fill="white"/>
</svg>
