<svg width="42" height="40" viewBox="0 0 42 40" fill="none" xmlns="http://www.w3.org/2000/svg">
<g filter="url(#filter0_d_2470_18697)">
<path d="M33.5462 17.9322C33.5462 16.3061 31.5099 14.7648 28.3874 13.8095C29.1084 10.6277 28.7883 8.09537 27.3769 7.28433C27.0349 7.09278 26.6478 6.99637 26.256 7.00511V8.11992C26.4861 8.11992 26.6712 8.16594 26.8266 8.25083C27.5068 8.64152 27.8024 10.1266 27.5722 12.0381C27.517 12.5086 27.427 13.0036 27.3166 13.5088C26.2709 13.2569 25.2097 13.0747 24.1399 12.9637C23.5025 12.0844 22.8072 11.2487 22.0586 10.462C23.6899 8.94631 25.2209 8.11583 26.2621 8.11583V7C24.8855 7 23.0844 7.98082 21.2629 9.68167C19.4423 7.99207 17.6402 7.02046 16.2646 7.02046V8.13526C17.3007 8.13526 18.8369 8.96165 20.4682 10.4671C19.7676 11.2035 19.067 12.0381 18.4012 12.9637C17.3292 13.0735 16.266 13.2574 15.2194 13.5139C15.1088 13.0351 15.0217 12.5511 14.9586 12.0637C14.7233 10.1511 15.0138 8.66607 15.6899 8.27129C15.8392 8.18128 16.0345 8.14037 16.2646 8.14037V7.02557C15.8453 7.02557 15.4638 7.11557 15.1345 7.30478C13.7282 8.11583 13.4132 10.642 14.1383 13.8146C11.0261 14.776 9 16.3112 9 17.9322C9 19.5584 11.0363 21.0997 14.1588 22.054C13.4377 25.2368 13.7579 27.7691 15.1693 28.5791C15.4945 28.7694 15.875 28.8594 16.2943 28.8594C17.6709 28.8594 19.472 27.8786 21.2935 26.1777C23.114 27.8683 24.9151 28.8389 26.2917 28.8389C26.6866 28.8473 27.0766 28.7506 27.4219 28.5587C28.8282 27.7487 29.1432 25.2225 28.4181 22.0499C31.5201 21.0946 33.5462 19.5533 33.5462 17.9322ZM27.0312 14.595C26.8369 15.2637 26.6116 15.9231 26.3562 16.571C25.938 15.7576 25.4789 14.966 24.9806 14.1992C25.6914 14.3045 26.3766 14.4344 27.0322 14.595H27.0312ZM24.7402 19.9236C24.3656 20.5776 23.9633 21.2153 23.5344 21.8351C22.0332 21.9674 20.5234 21.9691 19.022 21.8402C18.1608 20.61 17.4076 19.3076 16.7709 17.9476C17.4066 16.5844 18.1566 15.2774 19.0128 14.0407C20.5136 13.9081 22.023 13.906 23.5242 14.0345C23.9394 14.6298 24.3454 15.2659 24.7351 15.9368C25.1156 16.5914 25.4613 17.2562 25.7763 17.9271C25.4578 18.6062 25.1121 19.2722 24.7402 19.9236V19.9236ZM26.3562 19.2731C26.6262 19.943 26.8573 20.6139 27.0465 21.2644C26.392 21.425 25.7006 21.56 24.9857 21.6643C25.482 20.8905 25.9394 20.0924 26.3562 19.2731V19.2731ZM21.2833 24.6119C20.818 24.1312 20.3526 23.5963 19.8924 23.0102C20.3424 23.0307 20.8026 23.046 21.268 23.046C21.7384 23.046 22.2038 23.0358 22.6589 23.0102C22.2089 23.5963 21.7435 24.1312 21.2833 24.6119ZM17.5605 21.6643C16.8709 21.5644 16.1863 21.4326 15.5088 21.2695C15.6939 20.6241 15.9241 19.9583 16.1838 19.2935C16.3894 19.6924 16.6052 20.0933 16.8405 20.4943C17.0757 20.8941 17.315 21.2848 17.5605 21.6643ZM21.2577 11.2526C21.7231 11.7333 22.1884 12.2682 22.6487 12.8543C22.1987 12.8338 21.7384 12.8185 21.2731 12.8185C20.8026 12.8185 20.3373 12.8287 19.8821 12.8543C20.3321 12.2682 20.7975 11.7333 21.2577 11.2526ZM17.5554 14.2002C17.0592 14.9723 16.6018 15.7687 16.1849 16.5863C15.9222 15.9342 15.6918 15.2697 15.4945 14.595C16.1491 14.4395 16.8405 14.3045 17.5554 14.2002ZM13.0276 20.4636C11.2562 19.7088 10.1107 18.7177 10.1107 17.9322C10.1107 17.1468 11.2562 16.1506 13.0276 15.4009C13.4572 15.2158 13.9276 15.0501 14.4135 14.8957C14.6988 15.8755 15.0742 16.8962 15.5385 17.9425C15.1001 18.9266 14.7293 19.9394 14.4288 20.9739C13.9537 20.8268 13.4861 20.6565 13.0276 20.4636V20.4636ZM15.7195 27.6126C15.0394 27.224 14.7438 25.7369 14.9739 23.8264C15.0292 23.3559 15.1192 22.8599 15.2296 22.3546C16.2094 22.595 17.2802 22.7801 18.4063 22.9008C19.0437 23.78 19.739 24.6158 20.4876 25.4025C18.8563 26.9182 17.3252 27.7487 16.2841 27.7487C16.0876 27.7508 15.8937 27.7044 15.7195 27.6137V27.6126ZM27.5876 23.8008C27.8228 25.7124 27.5324 27.1984 26.8563 27.5932C26.707 27.6832 26.5116 27.7231 26.2815 27.7231C25.2455 27.7231 23.7093 26.8977 22.078 25.3912C22.8235 24.6078 23.5141 23.774 24.145 22.8957C25.217 22.7859 26.2801 22.602 27.3268 22.3454C27.4423 22.8507 27.5313 23.3355 27.5876 23.8008V23.8008ZM29.5134 20.4636C29.0839 20.6487 28.6134 20.8144 28.1276 20.9688C27.8218 19.929 27.4459 18.9111 27.0026 17.922C27.4628 16.8819 27.832 15.8663 28.1123 14.8906C28.5889 15.0382 29.0582 15.2085 29.5185 15.4009C31.29 16.1557 32.4354 17.1468 32.4354 17.9322C32.4303 18.7177 31.2848 19.7139 29.5134 20.4636V20.4636Z" fill="#61DAFB"/>
<path d="M21.2674 20.2222C21.8739 20.2222 22.4555 19.9813 22.8844 19.5524C23.3133 19.1235 23.5542 18.5418 23.5542 17.9353C23.5542 17.3288 23.3133 16.7471 22.8844 16.3183C22.4555 15.8894 21.8739 15.6484 21.2674 15.6484C20.6608 15.6484 20.0792 15.8894 19.6503 16.3183C19.2214 16.7471 18.9805 17.3288 18.9805 17.9353C18.9805 18.5418 19.2214 19.1235 19.6503 19.5524C20.0792 19.9813 20.6608 20.2222 21.2674 20.2222V20.2222Z" fill="#61DAFB"/>
</g>
<defs>
<filter id="filter0_d_2470_18697" x="0.817946" y="0.86346" width="40.911" height="38.2235" filterUnits="userSpaceOnUse" color-interpolation-filters="sRGB">
<feFlood flood-opacity="0" result="BackgroundImageFix"/>
<feColorMatrix in="SourceAlpha" type="matrix" values="0 0 0 0 0 0 0 0 0 0 0 0 0 0 0 0 0 0 127 0" result="hardAlpha"/>
<feOffset dy="2.04551"/>
<feGaussianBlur stdDeviation="4.09103"/>
<feComposite in2="hardAlpha" operator="out"/>
<feColorMatrix type="matrix" values="0 0 0 0 0.380392 0 0 0 0 0.854902 0 0 0 0 0.984314 0 0 0 1 0"/>
<feBlend mode="normal" in2="BackgroundImageFix" result="effect1_dropShadow_2470_18697"/>
<feBlend mode="normal" in="SourceGraphic" in2="effect1_dropShadow_2470_18697" result="shape"/>
</filter>
</defs>
</svg>
