<svg width="100%" height="100%" viewBox="0 0 40 35" fill="none" xmlns="http://www.w3.org/2000/svg">
<path d="M39.3019 17.5041C39.3019 14.9003 36.0415 12.4325 31.042 10.903C32.1965 5.8085 31.6839 1.75385 29.424 0.455247C28.8765 0.148562 28.2567 -0.00580995 27.6293 0.00818789V1.79315C27.9977 1.79315 28.2941 1.86684 28.543 2.00276C29.632 2.62832 30.1053 5.00608 29.7368 8.06672C29.6484 8.82001 29.5043 9.6126 29.3274 10.4216C27.6532 10.0181 25.954 9.72653 24.2411 9.54873C23.2206 8.14088 22.1073 6.80274 20.9086 5.54321C23.5206 3.11632 25.972 1.7866 27.6391 1.7866V0C25.4349 0 22.5511 1.57044 19.6346 4.29374C16.7197 1.58845 13.8343 0.0327516 11.6317 0.0327516V1.81771C13.2906 1.81771 15.7502 3.14088 18.3622 5.5514C17.2404 6.73045 16.1187 8.06672 15.0526 9.54873C13.3362 9.72456 11.6339 10.0189 9.95813 10.4297C9.78102 9.66302 9.64165 8.88806 9.54054 8.10766C9.1639 5.04538 9.62897 2.66762 10.7114 2.03551C10.9505 1.89141 11.2633 1.8259 11.6317 1.8259V0.0409395C10.9603 0.0409395 10.3495 0.185047 9.82221 0.487999C7.57053 1.7866 7.06616 5.83142 8.2272 10.9112C3.24405 12.4505 0 14.9085 0 17.5041C0 20.1078 3.26042 22.5757 8.25996 24.1035C7.10546 29.1997 7.61802 33.2543 9.87788 34.5513C10.3986 34.8559 11.0078 35 11.6792 35C13.8834 35 16.7672 33.4296 19.6837 30.7063C22.5986 33.4132 25.4824 34.9673 27.6866 34.9673C28.3188 34.9806 28.9433 34.8258 29.4961 34.5186C31.7478 33.2216 32.2521 29.1768 31.0911 24.097C36.0579 22.5675 39.3019 20.0997 39.3019 17.5041ZM28.8705 12.1607C28.5594 13.2314 28.1987 14.2871 27.7897 15.3245C27.1202 14.0222 26.3851 12.7547 25.5872 11.5269C26.7253 11.6956 27.8225 11.9036 28.8722 12.1607H28.8705ZM25.2024 20.6925C24.6026 21.7396 23.9584 22.7608 23.2717 23.7531C20.8681 23.9649 18.4507 23.9677 16.0466 23.7613C14.6677 21.7916 13.4618 19.7063 12.4423 17.5287C13.4602 15.3459 14.661 13.2533 16.0319 11.2731C18.4349 11.0608 20.8517 11.0575 23.2553 11.2633C23.9201 12.2163 24.5703 13.2349 25.1942 14.3092C25.8034 15.3572 26.3569 16.4217 26.8612 17.4959C26.3513 18.5832 25.7979 19.6496 25.2024 20.6925ZM27.7897 19.651C28.2221 20.7236 28.5922 21.7978 28.8951 22.8393C27.8471 23.0964 26.74 23.3126 25.5954 23.4796C26.39 22.2407 27.1224 20.9629 27.7897 19.651ZM19.6673 28.1991C18.9222 27.4295 18.1771 26.573 17.4402 25.6347C18.1608 25.6674 18.8977 25.692 19.6428 25.692C20.3961 25.692 21.1412 25.6756 21.8699 25.6347C21.1493 26.573 20.4043 27.4295 19.6673 28.1991ZM13.7065 23.4796C12.6024 23.3196 11.5062 23.1087 10.4216 22.8475C10.718 21.8142 11.0864 20.7481 11.5024 19.6837C11.8315 20.3224 12.177 20.9643 12.5537 21.6062C12.9303 22.2465 13.3135 22.8721 13.7065 23.4796ZM19.6264 6.80906C20.3715 7.57872 21.1166 8.43517 21.8535 9.37351C21.133 9.34076 20.3961 9.31619 19.651 9.31619C18.8977 9.31619 18.1526 9.33257 17.4239 9.37351C18.1444 8.43517 18.8895 7.57872 19.6264 6.80906ZM13.6984 11.5286C12.9039 12.7648 12.1716 14.0399 11.504 15.349C11.0835 14.305 10.7146 13.2409 10.3986 12.1607C11.4467 11.9118 12.5537 11.6956 13.6984 11.5286ZM6.44879 21.5571C3.6125 20.3486 1.77841 18.7618 1.77841 17.5041C1.77841 16.2464 3.6125 14.6514 6.44879 13.4511C7.13657 13.1547 7.88986 12.8894 8.66771 12.6421C9.1246 14.2109 9.72559 15.8452 10.4691 17.5205C9.76713 19.0961 9.17349 20.7178 8.69228 22.3743C7.93154 22.1387 7.18281 21.866 6.44879 21.5571ZM10.7589 33.0038C9.66991 32.3815 9.19665 30.0005 9.56511 26.9415C9.65354 26.1882 9.79764 25.394 9.9745 24.585C11.5433 24.9698 13.2578 25.2662 15.0608 25.4595C16.0813 26.8673 17.1946 28.2054 18.3933 29.465C15.7814 31.8919 13.3299 33.2216 11.6628 33.2216C11.3483 33.225 11.0378 33.1508 10.7589 33.0054V33.0038ZM29.7614 26.9005C30.138 29.9612 29.673 32.3406 28.5905 32.9727C28.3514 33.1168 28.0386 33.1806 27.6702 33.1806C26.0113 33.1806 23.5517 31.8591 20.9397 29.447C22.1334 28.1927 23.2392 26.8576 24.2493 25.4513C25.9657 25.2754 27.668 24.9811 29.3438 24.5703C29.5288 25.3792 29.6713 26.1554 29.7614 26.9005ZM32.8449 21.5571C32.1572 21.8535 31.4039 22.1188 30.626 22.3661C30.1363 20.7012 29.5345 19.0713 28.8247 17.4877C29.5616 15.8223 30.1528 14.1962 30.6015 12.6339C31.3646 12.8703 32.116 13.143 32.8531 13.4511C35.6894 14.6596 37.5235 16.2464 37.5235 17.5041C37.5153 18.7618 35.6812 20.3568 32.8449 21.5571Z" fill="#61DAFB"/>
<path d="M19.6382 21.1748C20.6093 21.1748 21.5407 20.789 22.2274 20.1024C22.914 19.4157 23.2998 18.4843 23.2998 17.5132C23.2998 16.5421 22.914 15.6107 22.2274 14.924C21.5407 14.2373 20.6093 13.8516 19.6382 13.8516C18.6671 13.8516 17.7357 14.2373 17.049 14.924C16.3623 15.6107 15.9766 16.5421 15.9766 17.5132C15.9766 18.4843 16.3623 19.4157 17.049 20.1024C17.7357 20.789 18.6671 21.1748 19.6382 21.1748Z" fill="#61DAFB"/>
</svg>
