<svg width="100%" height="100%" viewBox="0 0 45 41" fill="none" xmlns="http://www.w3.org/2000/svg">
<g filter="url(#filter0_d_2475_18085)">
<path fill-rule="evenodd" clip-rule="evenodd" d="M26.7231 20.4147V24.0829C27.3117 24.3886 28.0078 24.6179 28.8114 24.7707C29.6151 24.9236 30.4621 25 31.3526 25C32.2204 25 33.0448 24.9159 33.8258 24.7478C34.6068 24.5797 35.2916 24.3026 35.8803 23.9167C36.4689 23.5308 36.9346 23.0264 37.2781 22.4036C37.6213 21.7807 37.7931 21.0108 37.7931 20.0937C37.7931 19.4289 37.6949 18.8461 37.4988 18.3456C37.3027 17.845 37.0196 17.3999 36.65 17.0101C36.2801 16.6203 35.8369 16.2707 35.3199 15.9612C34.803 15.6517 34.2201 15.3594 33.5711 15.0843C33.0957 14.8856 32.6694 14.6926 32.292 14.5054C31.9147 14.3182 31.5941 14.1271 31.3299 13.9322C31.0658 13.7374 30.8621 13.531 30.7187 13.3132C30.5753 13.0954 30.5036 12.849 30.5036 12.5738C30.5036 12.3216 30.5678 12.0943 30.6961 11.8918C30.8244 11.6893 31.0054 11.5154 31.2394 11.3702C31.4733 11.225 31.7601 11.1123 32.0996 11.032C32.4392 10.9518 32.8165 10.9117 33.2315 10.9117C33.5334 10.9117 33.8522 10.9346 34.188 10.9805C34.5238 11.0263 34.8615 11.097 35.201 11.1925C35.5406 11.288 35.8706 11.4084 36.1916 11.5536C36.5122 11.6988 36.8083 11.8669 37.08 12.058V8.63047C36.5292 8.4165 35.9272 8.25793 35.2746 8.15476C34.6219 8.05159 33.873 8 33.0278 8C32.1675 8 31.3526 8.09362 30.5829 8.28085C29.8132 8.46809 29.1359 8.7604 28.5511 9.15779C27.9663 9.55518 27.5041 10.0615 27.1645 10.6767C26.825 11.2919 26.6552 12.0274 26.6552 12.8833C26.6552 13.9762 26.9664 14.9085 27.589 15.6804C28.2116 16.4523 29.1567 17.1056 30.4244 17.6406C30.9225 17.8469 31.3865 18.0495 31.8167 18.2482C32.2468 18.4469 32.6184 18.6532 32.9316 18.8672C33.2447 19.0812 33.4919 19.3142 33.673 19.5664C33.8541 19.8186 33.9446 20.1052 33.9446 20.4262C33.9446 20.6631 33.888 20.8828 33.7748 21.0853C33.6617 21.2878 33.49 21.4636 33.2598 21.6126C33.0297 21.7616 32.7429 21.8782 32.3996 21.9622C32.0562 22.0463 31.6544 22.0883 31.1941 22.0883C30.4093 22.0883 29.6321 21.9489 28.8624 21.6699C28.0927 21.391 27.3796 20.9726 26.7231 20.4147V20.4147ZM20.4576 11.3035H25.1897V8.2931H12V11.3035H16.7089V24.7069H20.4576V11.3035Z" fill="#2884E9"/>
</g>
<defs>
<filter id="filter0_d_2475_18085" x="0.230769" y="0.153846" width="49.3314" height="40.5385" filterUnits="userSpaceOnUse" color-interpolation-filters="sRGB">
<feFlood flood-opacity="0" result="BackgroundImageFix"/>
<feColorMatrix in="SourceAlpha" type="matrix" values="0 0 0 0 0 0 0 0 0 0 0 0 0 0 0 0 0 0 127 0" result="hardAlpha"/>
<feOffset dy="3.92308"/>
<feGaussianBlur stdDeviation="5.88462"/>
<feComposite in2="hardAlpha" operator="out"/>
<feColorMatrix type="matrix" values="0 0 0 0 0.156863 0 0 0 0 0.517647 0 0 0 0 0.913725 0 0 0 1 0"/>
<feBlend mode="normal" in2="BackgroundImageFix" result="effect1_dropShadow_2475_18085"/>
<feBlend mode="normal" in="SourceGraphic" in2="effect1_dropShadow_2475_18085" result="shape"/>
</filter>
</defs>
</svg>
