<svg width="100%" height="100%" viewBox="0 0 46 30" fill="none" xmlns="http://www.w3.org/2000/svg">
<path fill-rule="evenodd" clip-rule="evenodd" d="M25.9819 21.9083V28.3817C27.0206 28.9211 28.249 29.3257 29.6673 29.5954C31.0855 29.8652 32.5803 30 34.1516 30C35.683 30 37.1378 29.8517 38.5161 29.555C39.8944 29.2583 41.1028 28.7694 42.1417 28.0883C43.1803 27.4073 44.0022 26.5172 44.6084 25.4181C45.2141 24.3189 45.5172 22.9602 45.5172 21.3419C45.5172 20.1686 45.344 19.1403 44.9979 18.2569C44.6519 17.3736 44.1522 16.588 43.5 15.9002C42.8472 15.2124 42.0652 14.5954 41.1528 14.0492C40.2406 13.5031 39.2119 12.9872 38.0666 12.5017C37.2277 12.151 36.4753 11.8105 35.8095 11.4801C35.1437 11.1497 34.5777 10.8126 34.1117 10.4687C33.6456 10.1247 33.286 9.7606 33.033 9.37624C32.78 8.99193 32.6535 8.55698 32.6535 8.0715C32.6535 7.62641 32.7667 7.22524 32.9931 6.86783C33.2195 6.51047 33.539 6.20364 33.9518 5.9474C34.3646 5.69115 34.8707 5.49222 35.4699 5.35066C36.0692 5.20903 36.735 5.13822 37.4674 5.13822C38.0001 5.13822 38.5627 5.17867 39.1553 5.25962C39.7479 5.34052 40.3438 5.46528 40.943 5.63385C41.5422 5.80241 42.1247 6.01484 42.691 6.27109C43.2569 6.52733 43.7793 6.82402 44.2588 7.16115V1.11259C43.2869 0.735 42.2245 0.455172 41.0728 0.273103C39.9209 0.0910344 38.5993 0 37.1079 0C35.5898 0 34.1516 0.165206 32.7933 0.49562C31.435 0.826034 30.2399 1.34188 29.2078 2.04316C28.1758 2.74443 27.3602 3.63791 26.7609 4.72355C26.1617 5.80919 25.8621 7.10721 25.8621 8.61766C25.8621 10.5462 26.4114 12.1915 27.51 13.5536C28.6086 14.9157 30.2765 16.0688 32.5137 17.0128C33.3926 17.3769 34.2115 17.7343 34.9706 18.085C35.7296 18.4356 36.3854 18.7997 36.9381 19.1773C37.4907 19.555 37.9268 19.9663 38.2464 20.4113C38.566 20.8564 38.7258 21.3621 38.7258 21.9285C38.7258 22.3466 38.6259 22.7343 38.4262 23.0917C38.2265 23.4491 37.9235 23.7593 37.5173 24.0222C37.1112 24.2853 36.6052 24.4909 35.9993 24.6393C35.3934 24.7876 34.6842 24.8618 33.872 24.8618C32.4871 24.8618 31.1154 24.6156 29.7572 24.1234C28.3989 23.6312 27.1405 22.8928 25.9819 21.9083ZM14.9252 5.82962H23.2759V0.517241H0V5.82962H8.3099V29.4828H14.9252V5.82962Z" fill="#2884E9"/>
</svg>
