<svg width="100%" height="100%" viewBox="0 0 28 24" fill="none" xmlns="http://www.w3.org/2000/svg">
<path d="M28 2.84684C26.9703 3.32792 25.8642 3.65297 24.7013 3.79989C25.9012 3.0429 26.7988 1.85148 27.2268 0.447947C26.0995 1.15395 24.8658 1.6509 23.5791 1.91719C22.7139 0.943152 21.5679 0.297546 20.3191 0.0806033C19.0702 -0.13634 17.7884 0.0875171 16.6725 0.71742C15.5567 1.34732 14.6693 2.34803 14.1482 3.56417C13.627 4.78031 13.5012 6.14385 13.7904 7.44309C11.5062 7.32216 9.27163 6.69618 7.23174 5.60576C5.19185 4.51535 3.39221 2.98487 1.94962 1.11366C1.45636 2.0108 1.17273 3.05097 1.17273 4.15875C1.17218 5.15601 1.4051 6.13799 1.85081 7.01757C2.29653 7.89715 2.94127 8.64713 3.72783 9.20098C2.81563 9.17037 1.92356 8.91049 1.12587 8.44295V8.52096C1.12578 9.91966 1.58464 11.2753 2.42461 12.3579C3.26457 13.4405 4.43389 14.1833 5.73417 14.4603C4.88796 14.7018 4.00077 14.7374 3.13961 14.5644C3.50647 15.7678 4.22108 16.8203 5.1834 17.5742C6.14572 18.3282 7.30757 18.7461 8.5063 18.7692C6.47139 20.4535 3.95829 21.3672 1.37127 21.3632C0.913004 21.3633 0.455128 21.3351 0 21.2786C2.62597 23.0589 5.68279 24.0037 8.80472 24C19.3729 24 25.1502 14.7711 25.1502 6.76698C25.1502 6.50694 25.144 6.24429 25.1329 5.98425C26.2567 5.12738 27.2267 4.0663 27.9975 2.85074L28 2.84684Z" fill="white"/>
</svg>
