<svg width="100%" height="100%" viewBox="0 0 29 25" fill="none" xmlns="http://www.w3.org/2000/svg">
<path d="M28.1714 3.28043C27.1417 3.76151 26.0356 4.08656 24.8727 4.23349C26.0726 3.47649 26.9702 2.28508 27.3982 0.881541C26.2709 1.58754 25.0371 2.08449 23.7505 2.35078C22.8853 1.37675 21.7393 0.73114 20.4905 0.514197C19.2416 0.297254 17.9598 0.521111 16.8439 1.15101C15.7281 1.78092 14.8407 2.78162 14.3196 3.99776C13.7984 5.21391 13.6726 6.57745 13.9618 7.87668C11.6776 7.75576 9.44302 7.12977 7.40313 6.03936C5.36324 4.94894 3.5636 3.41846 2.121 1.54725C1.62774 2.4444 1.34412 3.48457 1.34412 4.59235C1.34357 5.5896 1.57648 6.57158 2.0222 7.45116C2.46792 8.33075 3.11266 9.08073 3.89921 9.63457C2.98702 9.60397 2.09495 9.34408 1.29726 8.87654V8.95456C1.29716 10.3532 1.75603 11.7089 2.59599 12.7915C3.43596 13.8741 4.60528 14.6169 5.90555 14.8939C5.05934 15.1354 4.17216 15.171 3.311 14.9979C3.67786 16.2014 4.39247 17.2538 5.35479 18.0078C6.31711 18.7618 7.47896 19.1797 8.67769 19.2028C6.64278 20.8871 4.12967 21.8008 1.54265 21.7968C1.08439 21.7969 0.626515 21.7687 0.171387 21.7122C2.79736 23.4925 5.85418 24.4373 8.97611 24.4336C19.5442 24.4336 25.3216 15.2047 25.3216 7.20057C25.3216 6.94053 25.3154 6.67789 25.3043 6.41784C26.4281 5.56097 27.3981 4.4999 28.1689 3.28433L28.1714 3.28043Z" fill="white"/>
</svg>
