<svg width="100%" height="100%" viewBox="0 0 43 35" fill="none" xmlns="http://www.w3.org/2000/svg">
<path d="M42.2355 0.017496C42.1657 0.0507626 42.1058 0.101527 42.0615 0.164843C36.054 7.67424 30.0447 15.1836 24.0425 22.693C23.8525 22.8581 23.9981 23.2043 24.2538 23.1635C28.5836 23.1688 32.9118 23.1635 37.2416 23.1653C37.4286 23.1749 37.6151 23.1397 37.7856 23.0625C37.9561 22.9853 38.1056 22.8683 38.2216 22.7214C39.5957 21.0048 40.9733 19.2881 42.3473 17.5678C42.536 17.3189 42.6269 17.0094 42.603 16.698C42.5994 11.2354 42.603 5.7747 42.5976 0.312191C42.626 0.116911 42.4201 -0.0535147 42.2355 0.0157209V0.017496ZM0.134921 0.0423497C-0.00177528 0.10981 0.00355054 0.276686 0 0.406281C0.00355054 5.86347 0.00177527 11.3242 0.00177527 16.7832C-0.0101057 17.0825 0.0898877 17.3755 0.282268 17.6051L13.8453 34.559C14.0584 34.8288 14.3921 35.0028 14.7419 34.9974C19.1001 34.9974 23.4584 35.0028 27.8167 34.9974C28.0688 35.033 28.2108 34.6885 28.0227 34.527C18.9244 23.1386 9.80838 11.7591 0.708333 0.369C0.566312 0.202124 0.399436 -0.113874 0.136696 0.0423497H0.134921Z" fill="#FF1058"/>
</svg>
