<svg width="68" height="68" viewBox="0 0 68 68" fill="none" xmlns="http://www.w3.org/2000/svg">
<rect width="68" height="68" rx="34" fill="white"/>
<path fill-rule="evenodd" clip-rule="evenodd" d="M40.2839 18.7999C39.4754 18.7999 38.8221 18.1639 38.8221 17.3778C38.8221 16.5918 39.4754 15.9568 40.2839 15.9568C41.0924 15.9568 41.7457 16.5908 41.7457 17.3778C41.7457 18.1639 41.0924 18.8009 40.2839 18.8009V18.7999ZM28.5912 18.7999C27.7827 18.7999 27.1294 18.1639 27.1294 17.3778C27.1294 16.5918 27.7827 15.9568 28.5912 15.9568C29.3997 15.9568 30.0531 16.5908 30.0531 17.3778C30.0531 18.1639 29.3997 18.8009 28.5912 18.8009V18.7999ZM41.1475 13.1026L41.6927 12.3012L42.2378 11.5121L43.4516 9.73689C43.4871 9.68527 43.5118 9.62698 43.5242 9.56554C43.5366 9.5041 43.5364 9.44078 43.5236 9.37942C43.5108 9.31806 43.4857 9.25993 43.4498 9.20855C43.4139 9.15717 43.368 9.11361 43.3148 9.08049C43.2078 9.01001 43.0774 8.98443 42.9517 9.00926C42.826 9.03408 42.7152 9.10734 42.643 9.2132L40.7902 11.9123L40.2339 12.7249C38.3801 12.0324 36.4164 11.681 34.4376 11.6877C32.4587 11.6812 30.4951 12.0326 28.6413 12.7249L28.088 11.9123L27.5408 11.114L26.2382 9.2132C26.1641 9.10797 26.0522 9.03541 25.9259 9.01069C25.7996 8.98596 25.6687 9.01097 25.5604 9.08049C25.5077 9.1141 25.4623 9.1579 25.4268 9.20931C25.3913 9.26073 25.3665 9.31872 25.3537 9.37988C25.341 9.44104 25.3406 9.50413 25.3526 9.56544C25.3646 9.62675 25.3887 9.68504 25.4236 9.73689L26.6384 11.5121L27.1825 12.3012L27.7296 13.1026C23.5953 14.9779 20.7971 18.5304 20.7971 22.5953H48.078C48.078 18.5304 45.2809 14.9779 41.1485 13.1016L41.1475 13.1026ZM21.0064 24.491H20.7971V45.3549C20.7971 47.0117 22.1794 48.3602 23.8842 48.3602H26.1106C26.0318 48.6159 25.9919 48.8819 25.9922 49.1493V55.156C25.9922 56.727 27.304 58 28.9169 58C30.5298 58 31.8416 56.727 31.8416 55.156V49.1493C31.8416 48.8737 31.7967 48.6103 31.7232 48.3602H37.152C37.0757 48.6163 37.0368 48.8821 37.0366 49.1493V55.156C37.0366 56.727 38.3453 58 39.9583 58C41.5742 58 42.886 56.727 42.886 55.156V49.1493C42.886 48.8737 42.8411 48.6103 42.7645 48.3602H44.994C46.6988 48.3602 48.078 47.0127 48.078 45.3549V24.491H21.0074H21.0064ZM15.9247 24.491C14.3087 24.491 13 25.764 13 27.3341V39.5065C13 41.0766 14.3087 42.3506 15.9247 42.3506C17.5376 42.3506 18.8463 41.0766 18.8463 39.5065V27.3341C18.8463 25.764 17.5376 24.491 15.9247 24.491ZM52.9535 24.491C51.3375 24.491 50.0288 25.764 50.0288 27.3341V39.5065C50.0288 41.0766 51.3375 42.3506 52.9535 42.3506C54.5664 42.3506 55.8751 41.0766 55.8751 39.5065V27.3341C55.8751 25.764 54.5664 24.491 52.9535 24.491Z" fill="#95CF00"/>
</svg>
