<svg width="68" height="68" viewBox="0 0 68 68" fill="none" xmlns="http://www.w3.org/2000/svg">
<rect width="68" height="68" rx="34" fill="white"/>
<path d="M53.2005 25.6233C53.2002 24.9013 53.0458 24.2634 52.7335 23.7159C52.4268 23.1775 51.9675 22.7262 51.3514 22.3694C46.2656 19.4369 41.1748 16.5134 36.0907 13.5779C34.72 12.7866 33.3911 12.8155 32.0306 13.6181C30.0063 14.812 19.8713 20.6185 16.8512 22.3678C15.6075 23.0878 15.0022 24.1897 15.0019 25.6219C15 31.5194 15.0019 37.4167 15 43.3142C15.0003 44.0203 15.1481 44.6459 15.4466 45.1852C15.7535 45.7399 16.2192 46.2035 16.8496 46.5684C19.8698 48.3177 30.0061 54.1238 32.03 55.3179C33.3911 56.121 34.72 56.1497 36.0911 55.3581C41.1754 52.4225 46.2665 49.4991 51.353 46.5666C51.9833 46.2019 52.4491 45.7379 52.756 45.1837C53.054 44.6444 53.2021 44.0188 53.2024 43.3126C53.2024 43.3126 53.2024 31.5209 53.2005 25.6233Z" fill="#5C8DBC"/>
<path d="M34.1598 34.4111L15.4468 45.1857C15.7536 45.7404 16.2194 46.204 16.8497 46.5689C19.87 48.3182 30.0063 54.1243 32.0301 55.3184C33.3912 56.1215 34.7202 56.1502 36.0913 55.3586C41.1756 52.423 46.2666 49.4996 51.3532 46.5671C51.9835 46.2024 52.4492 45.7384 52.7561 45.1842L34.1598 34.4111Z" fill="#1A4674"/>
<path d="M28.6172 37.6027C29.7061 39.5037 31.7531 40.7858 34.1013 40.7858C36.464 40.7858 38.5227 39.4874 39.6061 37.566L34.1598 34.4111L28.6172 37.6027Z" fill="#1A4674"/>
<path d="M53.201 25.6242C53.2007 24.9023 53.0463 24.2643 52.734 23.7168L34.1602 34.4115L52.7564 45.1846C53.0545 44.6453 53.2026 44.0198 53.2029 43.3135C53.2029 43.3135 53.2029 31.5218 53.201 25.6242Z" fill="#1B598E"/>
<path d="M52.1775 35.1816H50.7243V36.635H49.2709V35.1816H47.8179V33.7286H49.2709V32.2754H50.7243V33.7286H52.1775V35.1816ZM46.875 35.1816H45.422V36.635H43.9688V35.1816H42.5156V33.7286H43.9688V32.2754H45.422V33.7286H46.875V35.1816Z" fill="white"/>
<path d="M39.6063 37.5651C38.5229 39.4864 36.4642 40.7849 34.1015 40.7849C31.7533 40.7849 29.7063 39.5027 28.6174 37.6017C28.0703 36.6478 27.7831 35.5672 27.7842 34.4676C27.7842 30.9787 30.6127 28.1504 34.1015 28.1504C36.4346 28.1504 38.4709 29.4166 39.5652 31.2981L45.0868 28.1186C42.8921 24.3301 38.7946 21.7812 34.1015 21.7812C27.0948 21.7812 21.415 27.4612 21.415 34.4676C21.415 36.7661 22.0265 38.9217 23.0953 40.781C25.2844 44.5895 29.3936 47.154 34.1015 47.154C38.8181 47.154 42.9337 44.5792 45.1197 40.7594L39.6063 37.5651Z" fill="white"/>
</svg>
