<svg width="68" height="68" viewBox="0 0 68 68" fill="none" xmlns="http://www.w3.org/2000/svg">
<rect width="68" height="68" rx="34" fill="white"/>
<path d="M54 43.2199C32.5648 46.0212 17.2655 49.3859 17.0392 35.5752C17.0392 35.5752 17.5069 30.224 24.0702 29.887C24.0702 29.887 24.2915 25.1343 29.3058 24.5961C32.0016 24.3044 35.0644 27.0806 35.3964 30.0027C35.3964 30.0027 42.0301 28.7755 42.3168 35.2433C42.4174 37.4964 41.9094 41.3288 35.5121 41.1629C35.5121 41.1629 31.8104 40.6599 31.3075 34.9365C30.2664 46.0162 46.285 45.3724 46.5163 35.3087C46.6169 30.9583 43.8306 26.4821 37.554 27.322C34.1139 18.6665 24.9554 19.1644 21.5455 27.1913C16.672 27.1913 12.9453 30.9432 13.0006 35.8418C13.1867 51.6089 35.1298 46.8561 54 43.2199Z" fill="#24339B"/>
</svg>
