<svg width="68" height="68" viewBox="0 0 68 68" fill="none" xmlns="http://www.w3.org/2000/svg">
<rect width="68" height="68" rx="34" fill="white"/>
<path d="M52.9202 44.4295C51.5408 44.7802 50.6876 44.4448 49.9223 43.2956L44.4783 35.7638L43.6913 34.7209L37.3338 43.3206C36.6074 44.3553 35.8455 44.8052 34.4898 44.4392L42.6308 33.511L35.0515 23.6397C36.3549 23.3863 37.2556 23.5151 38.0553 24.6826L43.7018 32.3083L49.3899 24.7241C50.1185 23.6895 50.902 23.2964 52.2103 23.6775L49.2716 27.5738L45.2899 32.7582C44.8158 33.3506 44.881 33.7562 45.3172 34.3281L52.9202 44.4295ZM15.0097 33.3284L15.6755 30.053C17.4885 23.5709 24.9185 20.8773 30.0426 24.8825C33.0371 27.2382 33.7813 30.5706 33.6332 34.3034H16.7539C16.5005 41.0224 21.3365 45.0774 27.5017 43.0086C29.6643 42.2823 30.9382 40.5886 31.5758 38.4701C31.8994 37.4085 32.4347 37.2424 33.4327 37.5458C32.9233 40.1956 31.7737 42.4091 29.3444 43.7944C25.7148 45.868 20.5336 45.1974 17.8085 42.3155C16.1848 40.6432 15.5142 38.5247 15.2133 36.2589C15.1658 35.8844 15.0711 35.5277 15 35.1688C15.0063 34.5556 15.0097 33.9427 15.0097 33.3296V33.3284ZM16.7846 32.8782H32.0379C31.9384 28.0198 28.9132 24.5689 24.7786 24.5396C20.2401 24.504 16.9811 27.8727 16.7843 32.8782H16.7846Z" fill="black"/>
</svg>
