<svg width="68" height="68" viewBox="0 0 68 68" fill="none" xmlns="http://www.w3.org/2000/svg">
<rect width="68" height="68" rx="34" fill="white"/>
<path d="M26.8333 54.9997C30.6053 54.9997 33.6667 51.9383 33.6667 48.1663V41.333H26.8333C23.0613 41.333 20 44.3943 20 48.1663C20 51.9383 23.0613 54.9997 26.8333 54.9997Z" fill="#0ACF83"/>
<path d="M20 34.4993C20 30.7273 23.0613 27.666 26.8333 27.666H33.6667V41.3327H26.8333C23.0613 41.3327 20 38.2713 20 34.4993Z" fill="#A259FF"/>
<path d="M20 20.8333C20 17.0613 23.0613 14 26.8333 14H33.6667V27.6667H26.8333C23.0613 27.6667 20 24.6053 20 20.8333Z" fill="#F24E1E"/>
<path d="M33.6665 14H40.4998C44.2718 14 47.3332 17.0613 47.3332 20.8333C47.3332 24.6053 44.2718 27.6667 40.4998 27.6667H33.6665V14Z" fill="#FF7262"/>
<path d="M47.3332 34.4993C47.3332 38.2713 44.2718 41.3327 40.4998 41.3327C36.7278 41.3327 33.6665 38.2713 33.6665 34.4993C33.6665 30.7273 36.7278 27.666 40.4998 27.666C44.2718 27.666 47.3332 30.7273 47.3332 34.4993Z" fill="#1ABCFE"/>
</svg>
