<svg width="68" height="68" viewBox="0 0 68 68" fill="none" xmlns="http://www.w3.org/2000/svg">
<rect width="68" height="68" rx="34" fill="white"/>
<path d="M19 46.1341L19.2411 45.7966L30.6418 24.164L30.6659 23.9349L25.6403 14.4948C25.2191 13.7041 24.0336 13.904 23.8955 14.7893L19 46.1341Z" fill="#FFC24A"/>
<path d="M19.1421 45.8765L19.3243 45.521L30.6058 24.115L25.5926 14.6365C25.176 13.854 24.1179 14.0535 23.9812 14.9294L19.1421 45.8765Z" fill="#FFA712"/>
<path d="M19.1421 45.8765L19.3243 45.521L30.6058 24.115L25.5926 14.6365C25.176 13.854 24.1179 14.0535 23.9812 14.9294L19.1421 45.8765Z" fill="#FEA511"/>
<path d="M34.3294 31.0758L38.0714 27.2435L34.3282 20.0979C33.973 19.4215 32.9809 19.4195 32.6293 20.0979L30.6294 23.9117V24.2364L34.3293 31.0758H34.3294Z" fill="#F4BD62"/>
<path d="M34.263 30.9161L37.901 27.1904L34.263 20.2631C33.9176 19.6055 33.0784 19.5366 32.7366 20.1961L30.7262 24.0691L30.666 24.2672L34.263 30.9161Z" fill="#FFA50E"/>
<path d="M34.263 30.9161L37.901 27.1904L34.263 20.2631C33.9176 19.6055 33.0784 19.5366 32.7366 20.1961L30.7262 24.0691L30.666 24.2672L34.263 30.9161Z" fill="#FEA511"/>
<path d="M19 46.134L19.1092 46.0241L19.5062 45.8629L34.0946 31.3286L34.2795 30.8255L30.6402 23.8906L19 46.134Z" fill="#F6820C"/>
<path d="M34.797 53.4641L47.9999 46.1008L44.2296 22.8806C44.1117 22.1541 43.2204 21.867 42.7004 22.3878L19 46.1342L32.1272 53.4635C32.5352 53.6913 32.9947 53.811 33.462 53.8111C33.9293 53.8112 34.3889 53.6917 34.797 53.4641Z" fill="#FDE068"/>
<path d="M47.8816 46.0387L44.1399 22.9948C44.023 22.2738 43.2817 21.9755 42.7657 22.4925L19.1465 46.0886L32.1295 53.3453C32.5345 53.5714 32.9905 53.6901 33.4542 53.6903C33.918 53.6904 34.3741 53.5719 34.7791 53.346L47.8817 46.0386L47.8816 46.0387Z" fill="#FCCA3F"/>
<path d="M34.7968 53.2476C34.3887 53.4752 33.9291 53.5946 33.4618 53.5945C32.9946 53.5944 32.5351 53.4748 32.127 53.247L19.1056 46.023L19 46.1347L32.127 53.464C32.5351 53.6918 32.9946 53.8115 33.4619 53.8116C33.9292 53.8117 34.3888 53.6922 34.7969 53.4646L47.9998 46.1013L47.9674 45.9023L34.7969 53.2477L34.7968 53.2476Z" fill="#EEAB37"/>
</svg>
