<svg width="68" height="68" viewBox="0 0 68 68" fill="none" xmlns="http://www.w3.org/2000/svg">
<rect width="68" height="68" rx="34" fill="white"/>
<path d="M18.01 45.2498L18.2284 44.9421L28.602 25.2571L28.6218 25.0486L24.0455 16.4519C23.6584 15.7273 22.5863 15.9159 22.4572 16.72L18.01 45.2498Z" fill="#FFC24A"/>
<path d="M31.9573 31.5506L35.3622 28.0662L31.9573 21.5641C31.6297 20.9487 30.7264 20.9487 30.4087 21.5641L28.5921 25.0385V25.3364L31.9573 31.5506Z" fill="#F4BD62"/>
<path d="M18.01 45.2497L18.1092 45.1504L18.4666 45.0015L31.7488 31.7789L31.9076 31.3223L28.602 25.0088L18.01 45.2497Z" fill="#F6820C"/>
<path d="M32.3841 51.9206L44.3956 45.22L40.9609 24.0856C40.8517 23.4205 40.0377 23.1624 39.5712 23.6389L18.01 45.2497L29.9619 51.9206C30.7065 52.3475 31.6297 52.3475 32.3841 51.9206Z" fill="#FDE068"/>
<path d="M44.2963 45.16L40.8914 24.1944C40.7822 23.5392 40.1072 23.2712 39.6406 23.7378L18.139 45.2096L29.952 51.811C30.6965 52.2279 31.6098 52.2279 32.3642 51.811L44.2963 45.16Z" fill="#FCCA3F"/>
<path d="M32.384 51.7228C31.6296 52.1397 30.7064 52.1397 29.952 51.7228L18.0993 45.1512L18 45.2505L29.952 51.9213C30.7064 52.3382 31.6296 52.3382 32.384 51.9213L44.3956 45.2207L44.3658 45.042L32.384 51.7228Z" fill="#EEAB37"/>
<path d="M48.7484 45.061C49.4396 40.8019 46.5473 36.789 42.2883 36.0977C38.0293 35.4065 34.0163 38.2988 33.3251 42.5579C32.6339 46.8169 35.5261 50.8299 39.7852 51.5211C44.0442 52.2123 48.0572 49.32 48.7484 45.061Z" fill="#757575"/>
<path fill-rule="evenodd" clip-rule="evenodd" d="M37.5096 41.6878L40.984 39.9277L44.5528 41.6878V43.4726L40.984 41.7056L37.5096 43.4726V41.6878Z" fill="white"/>
<path fill-rule="evenodd" clip-rule="evenodd" d="M37.5096 44.7278L40.984 42.9678L44.5528 44.7278V46.5127L40.984 44.7457L37.5096 46.5127V44.7278Z" fill="white"/>
<path fill-rule="evenodd" clip-rule="evenodd" d="M40.9919 46.4706L42.0054 45.998L43.7892 46.819L40.9919 48.1621V46.4706Z" fill="white"/>
</svg>
