<svg width="68" height="68" viewBox="0 0 68 68" fill="none" xmlns="http://www.w3.org/2000/svg">
<rect width="68" height="68" rx="34" fill="white"/>
<path d="M57.9921 32.8029L35.8036 10.6145C35.4077 10.2209 34.8721 10 34.3139 10C33.7556 10 33.22 10.2209 32.8241 10.6145L10.6145 32.8029C10.2209 33.1989 10 33.7344 10 34.2927C10 34.851 10.2209 35.3866 10.6145 35.7825L32.8029 57.9709C33.1989 58.3645 33.7344 58.5854 34.2927 58.5854C34.851 58.5854 35.3866 58.3645 35.7825 57.9709L57.9709 35.7825C58.3645 35.3866 58.5854 34.851 58.5854 34.2927C58.5854 33.7344 58.3645 33.1989 57.9709 32.8029H57.9921ZM27.1185 16.5525L32.0633 21.4974L27.1185 16.5525ZM34.3033 26.9071V41.6994V26.9071Z" fill="white"/>
<path d="M27.1185 16.5525L32.0633 21.4974M34.3033 26.9071V41.6994M57.9921 32.8029L35.8036 10.6145C35.4077 10.2209 34.8721 10 34.3139 10C33.7556 10 33.22 10.2209 32.8241 10.6145L10.6145 32.8029C10.2209 33.1989 10 33.7344 10 34.2927C10 34.851 10.2209 35.3866 10.6145 35.7825L32.8029 57.9709C33.1989 58.3645 33.7344 58.5854 34.2927 58.5854C34.851 58.5854 35.3866 58.3645 35.7825 57.9709L57.9709 35.7825C58.3645 35.3866 58.5854 34.851 58.5854 34.2927C58.5854 33.7344 58.3645 33.1989 57.9709 32.8029H57.9921Z" stroke="#070707" stroke-width="2" stroke-linecap="round" stroke-linejoin="round"/>
<path d="M34.3032 26.9069C36.0538 26.9069 37.473 25.4878 37.473 23.7372C37.473 21.9865 36.0538 20.5674 34.3032 20.5674C32.5526 20.5674 31.1334 21.9865 31.1334 23.7372C31.1334 25.4878 32.5526 26.9069 34.3032 26.9069Z" fill="#070707" stroke="#070707" stroke-width="1.11874" stroke-linecap="round" stroke-linejoin="round"/>
<path d="M44.8694 37.4733C46.62 37.4733 48.0391 36.0542 48.0391 34.3036C48.0391 32.5529 46.62 31.1338 44.8694 31.1338C43.1187 31.1338 41.6996 32.5529 41.6996 34.3036C41.6996 36.0542 43.1187 37.4733 44.8694 37.4733Z" fill="#070707" stroke="#070707" stroke-width="1.11874" stroke-linecap="round" stroke-linejoin="round"/>
<path d="M34.3032 48.0388C36.0538 48.0388 37.473 46.6196 37.473 44.869C37.473 43.1184 36.0538 41.6992 34.3032 41.6992C32.5526 41.6992 31.1334 43.1184 31.1334 44.869C31.1334 46.6196 32.5526 48.0388 34.3032 48.0388Z" fill="#070707" stroke="#070707" stroke-width="1.11874" stroke-linecap="round" stroke-linejoin="round"/>
<path d="M36.5221 25.999L42.6081 32.085" stroke="#070707" stroke-width="2" stroke-linecap="round" stroke-linejoin="round"/>
</svg>
