<svg width="68" height="68" viewBox="0 0 68 68" fill="none" xmlns="http://www.w3.org/2000/svg">
<rect width="68" height="68" rx="34" fill="white"/>
<path d="M53.9999 43.7679C53.9999 43.7679 47.755 42.8428 44.455 42.5774C41.2859 42.3228 37.5305 42.1758 33.5017 42.1758C29.4729 42.1758 25.7175 42.3228 22.5493 42.5774C19.2484 42.8464 13.0043 44.1301 13.0043 44.1301V45.7438C13.0043 47.1782 22.1817 48.3436 33.5017 48.3436C44.8217 48.3436 53.999 47.1782 53.999 45.7438L53.9999 43.7679Z" fill="#F0D50C"/>
<path d="M27.1994 22.3643C19.7145 25.0312 14.7162 32.1178 14.7158 40.0637V42.7244C17.3868 42.0863 20.1101 41.6914 22.8523 41.5447C22.8338 41.0343 22.8242 40.52 22.8236 40.0018C22.8263 33.0199 24.5117 26.7373 27.1994 22.3643Z" fill="#F0D50C"/>
<path d="M52.287 40.0639C52.2934 35.704 50.7767 31.4787 47.999 28.1182C49.2032 31.9642 49.8032 35.9738 49.7777 40.0038C49.7777 40.7372 49.7588 41.4621 49.7212 42.1787C50.576 42.3103 51.4227 42.4899 52.2573 42.7166L52.287 40.0639Z" fill="#FFF04D"/>
<path d="M52.287 40.0639C52.2934 35.704 50.7767 31.4787 47.999 28.1182C49.2032 31.9642 49.8032 35.9738 49.7777 40.0038C49.7777 40.7372 49.7588 41.4621 49.7212 42.1787C50.576 42.3103 51.4227 42.4899 52.2573 42.7166L52.287 40.0639Z" fill="#FFEA00"/>
<path d="M47.9988 28.1168C42.9658 22.0158 34.653 19.7166 27.2003 22.364C24.5108 26.7371 22.8263 33.0197 22.8263 40.0025C22.8263 40.5206 22.8359 41.0349 22.855 41.5453C25.652 41.3293 28.8902 41.1957 32.3578 41.1715C32.3578 41.1715 33.1458 41.1715 33.5035 41.1715C38.9275 41.1064 44.3488 41.4441 49.7228 42.1818C49.7592 41.4646 49.7781 40.7397 49.7793 40.007C49.8047 35.9753 49.2041 31.9642 47.9988 28.1168Z" fill="#FFF04D"/>
<path d="M41.0584 29.3599L39.8679 21.9191C39.7833 21.3716 39.3911 20.9218 38.8602 20.7635C35.3913 19.7455 31.703 19.7455 28.2341 20.7635C27.7037 20.9221 27.3118 21.3718 27.2274 21.9191L26.0359 29.3599" fill="#FFF04D"/>
<path d="M33.5037 41.0146C33.1451 41.0146 32.7892 41.0146 32.4359 41.0146H32.3965H32.357C21.5696 41.09 13.0054 42.2231 13.0054 43.61V45.6199C12.9879 45.7377 13.0131 45.8579 13.0762 45.9588C13.6241 45.5473 14.2539 45.2581 14.923 45.1107C16.6272 44.6961 18.3593 44.406 20.1056 44.2429C21.0974 44.1341 22.088 44.4575 22.8247 45.1304C24.1734 46.3652 25.9357 47.05 27.7643 47.0498H39.2394C41.068 47.0498 42.8303 46.3651 44.1791 45.1304C44.9156 44.4567 45.9068 44.133 46.899 44.242C48.645 44.4051 50.3768 44.6951 52.0807 45.1098C52.7144 45.2317 53.3129 45.4935 53.8325 45.8763C53.862 45.9059 53.8961 45.9319 53.9221 45.9588C53.9857 45.8574 54.0112 45.7366 53.9938 45.6181V43.6082C54.0001 42.1783 44.8227 41.0146 33.5037 41.0146Z" fill="#FFF04D"/>
<path d="M37.8212 35.0459L33.4984 37.7067V41.1626L37.8212 35.0459Z" fill="#6E6F70"/>
<path d="M33.5028 41.1626V37.7067L29.1799 35.0459L33.5028 41.1626Z" fill="#0A0A0A"/>
<path d="M29.1799 33.4663L33.5028 35.9657V26.4746L29.1799 33.4663Z" fill="#0A0A0A"/>
<path d="M37.8212 33.4663L33.4984 26.4736V30.9659V35.9648L37.8212 33.4654V33.4663Z" fill="#6E6F70"/>
</svg>
