<svg width="68" height="68" viewBox="0 0 68 68" fill="none" xmlns="http://www.w3.org/2000/svg">
<rect width="68" height="68" rx="34" fill="white"/>
<path d="M27.7392 47.2234C27.7392 47.2234 25.8516 48.3218 29.0843 48.6925C33.0012 49.1399 35.0028 49.0758 39.3181 48.2601C39.3181 48.2601 40.4549 48.9708 42.0396 49.587C32.3625 53.7328 20.1393 49.3466 27.7392 47.2234ZM26.556 41.8125C26.556 41.8125 24.4384 43.3801 27.6738 43.7151C31.858 44.1471 35.1616 44.1824 40.881 43.0816C40.881 43.0816 41.6702 43.8834 42.9131 44.3214C31.2154 47.7425 18.1864 44.5906 26.556 41.8125Z" fill="#0074BD"/>
<path d="M36.5237 32.6327C38.9094 35.3788 35.898 37.8476 35.898 37.8476C35.898 37.8476 41.952 34.7231 39.1723 30.8085C36.5751 27.1596 34.5842 25.3473 45.3633 19.0957C45.3633 19.0961 28.4431 23.3207 36.5237 32.6327Z" fill="#EA2D2E"/>
<path d="M49.3223 51.2276C49.3223 51.2276 50.7197 52.3799 47.7828 53.2704C42.1988 54.962 24.537 55.472 19.6317 53.3381C17.8692 52.5707 21.1756 51.5068 22.2158 51.2823C23.3004 51.0474 23.9197 51.0902 23.9197 51.0902C21.9584 49.7095 11.2435 53.8026 18.4779 54.9767C38.2055 58.1745 54.4386 53.5365 49.3223 51.2276ZM28.6483 36.2065C28.6483 36.2065 19.6654 38.3404 25.4675 39.1161C27.9178 39.4439 32.8001 39.3687 37.351 38.987C41.0691 38.6746 44.8003 38.0074 44.8003 38.0074C44.8003 38.0074 43.4905 38.5692 42.5417 39.2163C33.4178 41.6162 15.7963 40.4984 20.8699 38.045C25.1591 35.9705 28.6483 36.2065 28.6483 36.2065ZM44.7631 45.2136C54.0371 40.3959 49.7488 35.7658 46.7556 36.3894C46.0239 36.5419 45.6956 36.6745 45.6956 36.6745C45.6956 36.6745 45.9681 36.2473 46.4876 36.0636C52.4085 33.9827 56.9614 42.2023 44.5778 45.4579C44.5778 45.4571 44.72 45.3285 44.7631 45.2136Z" fill="#0074BD"/>
<path d="M39.1729 9C39.1729 9 44.3079 14.1381 34.3013 22.0365C26.2766 28.3744 32.4716 31.9872 34.2986 36.1168C29.6138 31.8906 26.1776 28.1697 28.4826 24.7069C31.8673 19.6251 41.2443 17.1601 39.1729 9Z" fill="#EA2D2E"/>
<path d="M29.5599 58.2725C38.4598 58.8415 52.1302 57.9557 52.4537 53.7441C52.4537 53.7441 51.8317 55.3407 45.0978 56.6074C37.5007 58.0376 28.1289 57.8709 22.5723 56.9535C22.5723 56.9539 23.7107 57.8963 29.5599 58.2725Z" fill="#0074BD"/>
</svg>
