<svg width="68" height="68" viewBox="0 0 68 68" fill="none" xmlns="http://www.w3.org/2000/svg">
<circle cx="34" cy="34" r="34" fill="#F7DF1E"/>
<path d="M22.5865 49.3437C27.3224 49.3437 30.5688 46.823 30.5688 41.285V23.0288H25.2218V41.2086C25.2218 43.8821 24.1142 44.5696 22.3573 44.5696C20.5241 44.5696 19.7602 43.3092 18.92 41.8197L14.566 44.455C15.8263 47.1285 18.3089 49.3437 22.5865 49.3437ZM43.2143 49.3437C48.2939 49.3437 52.075 46.7084 52.075 41.8961C52.075 37.4275 49.5161 35.4415 44.9711 33.4937L43.6344 32.9208C41.3428 31.9277 40.3498 31.2785 40.3498 29.6744C40.3498 28.3758 41.3428 27.3828 42.9087 27.3828C44.4364 27.3828 45.4295 28.0321 46.3461 29.6744L50.5091 27.0008C48.7522 23.9072 46.3079 22.7232 42.9087 22.7232C38.1346 22.7232 35.0792 25.7787 35.0792 29.7889C35.0792 34.1429 37.6381 36.2054 41.4956 37.8477L42.8323 38.4205C45.2767 39.4899 46.728 40.1392 46.728 41.9725C46.728 43.5002 45.3149 44.6078 43.0997 44.6078C40.4644 44.6078 38.9748 43.2329 37.8291 41.3614L33.4751 43.8821C35.041 46.9758 38.2492 49.3437 43.2143 49.3437Z" fill="#070707"/>
</svg>
