<svg width="68" height="68" viewBox="0 0 68 68" fill="none" xmlns="http://www.w3.org/2000/svg">
<rect width="68" height="68" rx="34" fill="white"/>
<path d="M44.6363 18.6855C41.5242 16.5176 38.0484 15.4336 34.5707 15.4336C30.9104 15.4336 27.4327 16.5176 24.5034 18.5063C21.5758 20.6742 19.3792 23.3832 18.0981 26.8161C21.393 23.0231 27.4327 20.6724 34.5707 20.6724C41.5242 20.6724 47.7466 23.2023 51.0415 26.8161C49.7605 23.5624 47.5639 20.6724 44.6363 18.6855ZM44.6363 46.5083C47.5639 44.5213 49.7623 41.6296 51.0415 38.3777C47.7466 41.9915 41.5242 44.5213 34.5707 44.5213C27.6155 44.5213 21.393 41.9915 18.0981 38.3777C19.3792 41.6296 21.5758 44.5213 24.5034 46.5083C27.4327 48.4952 30.9086 49.5792 34.5707 49.5792C38.2311 49.581 41.7069 48.497 44.6363 46.5083Z" fill="#EC7424"/>
<path d="M21.5761 48.4961C19.7576 48.4961 18.2812 49.9527 18.2812 51.748C18.2812 53.5432 19.7558 54.9998 21.5761 54.9998C23.3965 54.9998 24.871 53.5432 24.871 51.748C24.871 49.9527 23.3947 48.4961 21.5761 48.4961Z" fill="#737374"/>
<path d="M20.6604 17.7814C20.6604 16.7835 19.8416 15.9736 18.8293 15.9736C17.8206 15.9736 17 16.7835 17 17.7814C17 18.7794 17.8206 19.5892 18.8293 19.5892C19.8416 19.5874 20.6604 18.7794 20.6604 17.7814Z" fill="#737374"/>
<path d="M49.943 14.5298C49.943 13.1323 48.7946 12 47.3809 12C45.9673 12 44.8188 13.1323 44.8188 14.5298C44.8188 15.9273 45.9673 17.0597 47.3809 17.0597C48.7946 17.0597 49.943 15.9255 49.943 14.5298Z" fill="#737374"/>
</svg>
