<svg width="68" height="68" viewBox="0 0 68 68" fill="none" xmlns="http://www.w3.org/2000/svg">
<rect width="68" height="68" rx="34" fill="white"/>
<path fill-rule="evenodd" clip-rule="evenodd" d="M43.8357 25.1191C44.4857 26.9996 44.9539 28.9193 45.1078 30.909C45.2989 33.3775 45.2114 35.8285 44.691 38.2565C44.6768 38.3233 44.6469 38.3861 44.6246 38.4509C44.4614 38.4513 44.2949 38.4311 44.1354 38.4558C42.7871 38.6676 41.4401 38.8871 40.0931 39.1054C38.7007 39.331 37.3063 39.5477 35.9163 39.7886C35.4238 39.8737 34.8143 39.772 34.6154 40.4532C34.6098 40.4719 34.5531 40.4751 34.5203 40.4856L34.5875 36.415C34.5644 33.141 34.5417 29.867 34.519 26.5929L35.1679 26.4816C36.229 26.3078 37.2901 26.1316 38.352 25.9628C39.6192 25.7615 40.8877 25.5659 42.1557 25.3694C42.715 25.2824 43.2751 25.2026 43.8357 25.1191Z" fill="#439934"/>
<path fill-rule="evenodd" clip-rule="evenodd" d="M33.1805 52.3522C32.496 51.7638 31.7877 51.2012 31.1316 50.5824C27.6012 47.2525 25.0189 43.3333 23.7472 38.6082C23.3969 37.3077 23.1632 35.9862 23.0883 34.6424C23.0356 33.702 22.9595 32.7531 23.0259 31.8175C23.2029 29.3292 23.5625 26.8648 24.2923 24.468L24.3324 24.4121C24.4033 24.5065 24.5054 24.5899 24.5414 24.6964C25.2538 26.7943 25.9609 28.8938 26.6644 30.9946C28.8749 37.5961 31.0826 44.1992 33.2967 50.799C33.34 50.9278 33.4522 51.0335 33.5328 51.1498L33.1805 52.3522Z" fill="#45A538"/>
<path fill-rule="evenodd" clip-rule="evenodd" d="M43.8356 25.1189C43.2751 25.2024 42.7145 25.2822 42.1552 25.3684C40.8872 25.5649 39.6187 25.7605 38.3515 25.9618C37.2896 26.1306 36.2285 26.3068 35.1674 26.4806L34.5186 26.5919L34.5137 26.1687C34.4922 25.8208 34.4554 25.4733 34.4513 25.1254C34.4234 22.9068 34.406 20.6882 34.3784 18.4697C34.3614 17.0809 34.3359 15.6926 34.3076 14.3042C34.2901 13.4416 34.2715 12.5785 34.2326 11.7171C34.2116 11.2542 34.137 10.7937 34.1067 10.3308C34.0897 10.0647 34.1132 9.7966 34.1184 9.5293C34.4493 10.1704 34.7729 10.8164 35.1131 11.4526C35.6505 12.4587 36.5067 13.1998 37.2774 14.0086C40.3242 17.2048 42.4873 20.9211 43.8356 25.1189Z" fill="#46A037"/>
<path fill-rule="evenodd" clip-rule="evenodd" d="M34.52 40.4857C34.5528 40.4752 34.6099 40.4719 34.6152 40.4533C34.8141 39.7721 35.4236 39.8737 35.9161 39.7887C37.306 39.5481 38.7004 39.331 40.0928 39.1054C41.4399 38.8872 42.7869 38.6676 44.1351 38.4558C44.2947 38.4307 44.4612 38.4514 44.6244 38.451C44.3725 39.3501 44.174 40.2686 43.8545 41.143C43.4916 42.1348 43.0526 43.1028 42.5864 44.0517C41.8898 45.4704 41.0219 46.7936 40.0134 48.0057C39.2363 48.9405 38.37 49.8043 37.5016 50.6577C37.0217 51.1295 36.4559 51.5138 35.9294 51.9379L35.7929 51.8447L35.3013 51.4243L34.7926 50.3094C34.4423 49.004 34.2584 47.6752 34.228 46.325L34.2373 46.0978L34.3066 45.1152C34.3297 44.7799 34.3605 44.445 34.3746 44.1088C34.4269 42.9011 34.4722 41.6934 34.52 40.4857Z" fill="#409433"/>
<path fill-rule="evenodd" clip-rule="evenodd" d="M34.5199 40.4848C34.4721 41.6925 34.4268 42.9002 34.3753 44.1083C34.3612 44.4445 34.3304 44.7794 34.3073 45.1147L33.9975 45.2318C33.3094 43.206 32.6209 41.2016 31.9474 39.192C30.8336 35.8674 29.7332 32.5375 28.6211 29.212C27.7232 26.5277 26.818 23.8462 25.9076 21.1659C25.8651 21.0403 25.7428 20.9423 25.6577 20.8314L27.6406 17.1855C27.7086 17.3038 27.7985 17.4144 27.8415 17.5415C28.7588 20.2563 29.6745 22.9714 30.5825 25.6893C31.7635 29.225 32.9372 32.7635 34.1173 36.2995C34.1643 36.4408 34.2421 36.5713 34.3162 36.7296L34.5876 36.4137C34.5649 37.7709 34.5422 39.1276 34.5199 40.4848Z" fill="#4FAA41"/>
<path fill-rule="evenodd" clip-rule="evenodd" d="M25.6582 20.832C25.7432 20.943 25.8651 21.041 25.9081 21.1666C26.8185 23.8468 27.7237 26.5283 28.6215 29.2127C29.7337 32.5381 30.8341 35.868 31.9478 39.1927C32.6209 41.2019 33.3094 43.2066 33.9979 45.2324L34.3077 45.1154L34.2385 46.0979L34.1757 46.3243C34.068 47.4 33.9773 48.4781 33.846 49.5514C33.78 50.0892 33.6399 50.6173 33.5334 51.1499C33.4532 51.0337 33.3406 50.928 33.2973 50.7992C31.0831 44.1989 28.8755 37.5962 26.665 30.9947C25.9615 28.894 25.2544 26.7944 24.542 24.6965C24.5059 24.59 24.4043 24.5066 24.333 24.4122C24.7745 23.2187 25.2163 22.0252 25.6582 20.832Z" fill="#4AA73C"/>
<path fill-rule="evenodd" clip-rule="evenodd" d="M34.5871 36.4149L34.3157 36.7308C34.2416 36.5725 34.1639 36.4417 34.1169 36.3007C32.9371 32.7647 31.763 29.2262 30.5821 25.6905C29.674 22.9726 28.7583 20.2575 27.841 17.5428C27.7985 17.4156 27.7086 17.3046 27.6401 17.1868L30.0924 13.9609C30.1698 14.0642 30.2799 14.1561 30.32 14.2724C31.0008 16.2654 31.6756 18.2608 32.3462 20.2575C32.9728 22.1221 33.59 23.9895 34.2238 25.8517C34.2663 25.9765 34.4142 26.0648 34.513 26.1701L34.5178 26.5933C34.5413 29.8665 34.5644 33.1409 34.5871 36.4149Z" fill="#57AE47"/>
<path fill-rule="evenodd" clip-rule="evenodd" d="M34.5138 26.1687C34.415 26.0634 34.2672 25.9752 34.2247 25.8504C33.5908 23.9882 32.9736 22.1208 32.3471 20.2562C31.6764 18.2595 31.0017 16.2645 30.3209 14.2711C30.2808 14.1548 30.1706 14.0629 30.0933 13.9596C30.8907 13.1788 31.6634 12.37 32.4929 11.6252C33.2304 10.9634 33.8233 10.2539 33.8504 9.20817C33.8517 9.16483 33.8743 9.1215 33.9092 9L34.1194 9.52893C34.1141 9.79663 34.0902 10.0643 34.1076 10.3304C34.138 10.7933 34.2125 11.2538 34.2336 11.7167C34.2725 12.5782 34.2911 13.4412 34.3085 14.3039C34.3364 15.6922 34.362 17.0806 34.3794 18.4693C34.4065 20.6879 34.4243 22.9065 34.4523 25.1251C34.4555 25.4738 34.492 25.8208 34.5138 26.1687Z" fill="#60B24F"/>
<path fill-rule="evenodd" clip-rule="evenodd" d="M33.5325 51.1499C33.639 50.6174 33.7792 50.0888 33.8452 49.5514C33.9768 48.4786 34.0671 47.4 34.1749 46.3244L34.2016 46.3203L34.2283 46.3248C34.2587 47.675 34.4426 49.0038 34.7929 50.3092C34.7216 50.4031 34.6208 50.4869 34.5831 50.5931C34.2887 51.4233 34.0112 52.26 33.7152 53.0903C33.6747 53.2037 33.5621 53.292 33.4827 53.3916L33.1802 52.3524L33.5325 51.1499Z" fill="#A9AA88"/>
<path fill-rule="evenodd" clip-rule="evenodd" d="M33.4829 53.391C33.5623 53.2914 33.6753 53.2031 33.7154 53.0897C34.0114 52.2595 34.2893 51.4232 34.5833 50.5925C34.621 50.4864 34.7214 50.4026 34.7931 50.3086L35.3014 51.424C35.2009 51.5665 35.0624 51.6949 35.0065 51.8537L34.0329 54.7126C33.9928 54.8272 33.8559 54.9082 33.7644 55.005L33.4829 53.391Z" fill="#B6B598"/>
<path fill-rule="evenodd" clip-rule="evenodd" d="M33.7646 55.0048C33.8566 54.9084 33.9931 54.827 34.0332 54.7124L35.0068 51.8535C35.0623 51.6952 35.2012 51.5664 35.3016 51.4238L35.7937 51.8438C35.556 52.0787 35.4239 52.3501 35.5033 52.6931L35.3539 53.1823C35.2858 53.2662 35.1874 53.3391 35.1538 53.4351C34.814 54.4083 34.4896 55.3867 34.1474 56.36C34.104 56.4835 33.9838 56.5803 33.8987 56.6888C33.8546 56.1271 33.8096 55.5666 33.7646 55.0048Z" fill="#C2C1A7"/>
<path fill-rule="evenodd" clip-rule="evenodd" d="M33.8989 56.6881C33.9836 56.5792 34.1039 56.4824 34.1476 56.3593C34.4898 55.3865 34.8142 54.408 35.154 53.4344C35.1876 53.3388 35.2857 53.2655 35.3541 53.1816L35.148 55.4274C35.0929 55.4909 35.0131 55.5464 34.9868 55.6205C34.7539 56.2742 34.5344 56.9327 34.3007 57.5864C34.2525 57.7213 34.1602 57.8403 34.0881 57.9663C34.0241 57.8825 33.9095 57.8015 33.9042 57.714C33.8835 57.3734 33.8977 57.0304 33.8989 56.6881Z" fill="#CECDB7"/>
<path fill-rule="evenodd" clip-rule="evenodd" d="M34.0874 57.9667C34.1595 57.8403 34.2518 57.7212 34.3 57.5868C34.5341 56.9335 34.7532 56.275 34.9861 55.6209C35.0124 55.5468 35.0926 55.4917 35.1473 55.4277L35.1521 56.9019L34.6589 58.1672L34.0874 57.9667Z" fill="#DBDAC7"/>
<path fill-rule="evenodd" clip-rule="evenodd" d="M34.6592 58.1676L35.1525 56.9023L35.2541 58.3992L34.6592 58.1676Z" fill="#EBE9DC"/>
<path fill-rule="evenodd" clip-rule="evenodd" d="M35.5031 52.693C35.4237 52.35 35.5554 52.0782 35.7935 51.8438L35.93 51.9369L35.5031 52.693Z" fill="#CECDB7"/>
<path fill-rule="evenodd" clip-rule="evenodd" d="M34.2283 46.3245L34.2015 46.32L34.1748 46.3241L34.2376 46.0977L34.2283 46.3245Z" fill="#4FAA41"/>
</svg>
