<svg width="68" height="68" viewBox="0 0 68 68" fill="none" xmlns="http://www.w3.org/2000/svg">
<rect width="68" height="68" rx="34" fill="white"/>
<path d="M22.1691 27.7812H30.2976V28.4273H22.9142V33.2898H29.8574V33.9358H22.9142V39.2744H30.3823V39.9204H22.1691V27.7812ZM31.0259 27.7812H31.8895L35.7167 33.1197L39.6285 27.7811L44.9493 21L36.2078 33.6809L40.7123 39.9204H39.8148L35.7167 34.2419L31.6016 39.9204H30.721L35.2595 33.6808L31.0259 27.7812ZM41.0341 28.4273V27.7811H50.2973V28.4272H46.0297V39.9204H45.2846V28.4273H41.0341ZM12 27.7811H12.9314L25.7747 47L20.4673 39.9204L12.7789 28.6993L12.7451 39.9205H12L12 27.7811ZM50.2222 39.0793C50.0699 39.0793 49.9558 38.9614 49.9558 38.8089C49.9558 38.6566 50.0699 38.5386 50.2222 38.5386C50.3762 38.5386 50.4886 38.6565 50.4886 38.8089C50.4886 38.9614 50.3762 39.0793 50.2222 39.0793ZM50.9543 38.368H51.3531C51.3585 38.5839 51.5161 38.7291 51.7481 38.7291C52.0073 38.7291 52.1541 38.5731 52.1541 38.2809V36.4299H52.56V38.2827C52.56 38.8089 52.2556 39.112 51.7517 39.112C51.2787 39.112 50.9543 38.818 50.9543 38.3679V38.368ZM53.091 38.3444H53.4934C53.5278 38.593 53.7706 38.7508 54.1205 38.7508C54.4466 38.7508 54.6859 38.5821 54.6859 38.3498C54.6859 38.1503 54.5336 38.0305 54.1875 37.9488L53.8504 37.8672C53.3773 37.7564 53.1617 37.5278 53.1617 37.1431C53.1617 36.6768 53.5423 36.3664 54.1131 36.3664C54.6441 36.3664 55.032 36.6767 55.0556 37.1177H54.6604C54.6224 36.8764 54.4121 36.7257 54.1077 36.7257C53.787 36.7257 53.5732 36.88 53.5732 37.1158C53.5732 37.3027 53.7108 37.4099 54.0515 37.4897L54.3397 37.5604C54.8761 37.6857 55.0972 37.9035 55.0972 38.2972C55.0972 38.7981 54.7094 39.112 54.0897 39.112C53.5097 39.112 53.12 38.8125 53.091 38.3444V38.3444Z" fill="black"/>
</svg>
