<svg width="68" height="68" viewBox="0 0 68 68" fill="none" xmlns="http://www.w3.org/2000/svg">
<rect width="68" height="68" rx="34" fill="white"/>
<path d="M54.0004 20.689L36.4079 10.474C35.2984 9.84202 33.8538 9.84202 32.7356 10.474L14.9552 20.689C13.8103 21.3477 13 22.5856 13 23.9097V44.3128C13 45.6369 13.8314 46.8752 14.9764 47.5375L19.674 50.2056C21.9193 51.3115 22.7128 51.3115 23.7345 51.3115C27.0589 51.3115 28.9579 49.3012 28.9579 45.7949V25.6519C28.9579 25.3675 28.8099 24.9442 28.5307 24.9442H26.2874C26.0033 24.9442 25.3674 25.3675 25.3674 25.6516V45.7945C25.3674 47.3488 23.9615 48.8955 21.334 47.5818L16.48 44.7839C16.3109 44.6922 16.1916 44.5075 16.1916 44.3128V23.9097C16.1916 23.7174 16.413 23.5244 16.5834 23.4258L34.3062 13.2283C34.4718 13.1345 34.7152 13.1345 34.8803 13.2283L52.387 23.4234C52.5546 23.5244 52.4955 23.7115 52.4955 23.9097V44.3128C52.4955 44.5075 52.5685 44.697 52.403 44.7907L34.8149 54.9942C34.6641 55.0848 34.477 55.0848 34.3118 54.9942L29.8009 52.3017C29.6649 52.2227 29.5033 52.1944 29.3729 52.2674C28.1178 52.9787 27.8864 53.0733 26.7091 53.4814C26.4194 53.5823 25.9922 53.7575 26.8726 54.251L32.7763 57.7434C33.3416 58.0705 33.9839 58.2405 34.6302 58.2405C35.2853 58.2405 35.9268 58.0705 36.4921 57.7434L53.9999 47.5375C55.1449 46.8704 55.6875 45.6369 55.6875 44.3128V23.9097C55.6875 22.5856 55.1449 21.3509 54.0004 20.689ZM40.0926 41.0797C35.4145 41.0797 34.384 39.7891 34.0406 37.4628C34.0007 37.2123 33.788 36.9127 33.5331 36.9127H31.2467C30.9639 36.9127 30.7365 37.2558 30.7365 37.5374C30.7365 40.516 32.3558 44.1249 40.093 44.1249C45.6938 44.1249 48.905 41.9486 48.905 38.0972C48.905 34.2784 46.325 33.2763 40.8933 32.5574C35.403 31.8317 34.8452 31.465 34.8452 30.1788C34.8452 29.1184 35.3176 27.7041 39.3829 27.7041C43.0153 27.7041 44.3542 28.4837 44.9051 30.932C44.9522 31.1622 45.1624 31.3274 45.3998 31.3274H47.6954C47.8366 31.3274 47.9714 31.2703 48.0704 31.1694C48.1661 31.0609 48.2168 30.9249 48.204 30.7788C47.8486 26.5627 45.0475 24.5979 39.3825 24.5979C34.3434 24.5979 31.3373 26.7259 31.3373 30.2929C31.3373 34.1619 34.3282 35.2311 39.1654 35.7094C44.9522 36.2768 45.4022 37.1225 45.4022 38.2607C45.4022 40.2375 43.8152 41.0797 40.0926 41.0797Z" fill="#83CD29"/>
</svg>
