<svg width="68" height="68" viewBox="0 0 68 68" fill="none" xmlns="http://www.w3.org/2000/svg">
<rect width="68" height="68" rx="34" fill="white"/>
<path d="M43.738 42.9013C43.9964 40.7497 43.9187 40.4357 45.5202 40.783L45.9277 40.8194C47.1597 40.8749 48.7706 40.6213 49.7331 40.182C51.7706 39.237 52.9788 37.6578 50.9699 38.0732C46.3875 39.0182 46.0545 37.4659 46.0545 37.4659C50.8954 30.2832 52.9202 21.166 51.1712 18.935C46.4081 12.8463 38.1614 15.7258 38.0235 15.8019L37.9791 15.8098C37.0753 15.6195 36.0764 15.5086 34.9189 15.4927C32.8449 15.461 31.272 16.0366 30.0765 16.9419C30.0765 16.9419 15.3669 10.8818 16.0503 24.5639C16.1961 27.4751 20.2204 46.6037 25.0247 40.8163C26.7832 38.7011 28.4798 36.9141 28.4798 36.9141C29.3201 37.4738 30.3301 37.7592 31.3877 37.6562L31.4702 37.5864C31.4458 37.8605 31.457 38.1366 31.5035 38.4078C30.2667 39.7904 30.6314 40.033 28.1579 40.542C25.6558 41.0573 27.1272 41.9754 28.0849 42.2164C29.2488 42.5081 31.9411 42.9204 33.7614 40.3739L33.6884 40.6641C34.1736 41.0525 34.1403 43.4547 34.2117 45.1703C34.283 46.8859 34.3956 48.489 34.746 49.4324C35.0965 50.3758 35.5071 52.8097 38.7576 52.1279C41.4737 51.546 43.5509 50.7072 43.7411 42.9156" fill="black"/>
<path d="M43.738 42.9013C43.9964 40.7497 43.9187 40.4357 45.5202 40.783L45.9277 40.8194C47.1597 40.8749 48.7706 40.6213 49.7331 40.182C51.7706 39.237 52.9788 37.6578 50.9699 38.0732C46.3875 39.0182 46.0545 37.4659 46.0545 37.4659C50.8954 30.2832 52.9202 21.166 51.1712 18.935C46.4081 12.8463 38.1614 15.7258 38.0235 15.8019L37.9791 15.8098C37.0753 15.6195 36.0764 15.5086 34.9189 15.4927C32.8449 15.461 31.272 16.0366 30.0765 16.9419C30.0765 16.9419 15.3669 10.8818 16.0503 24.5639C16.1961 27.4751 20.2204 46.6037 25.0247 40.8163C26.7832 38.7011 28.4798 36.9141 28.4798 36.9141C29.3201 37.4738 30.3301 37.7592 31.3877 37.6562L31.4702 37.5864C31.4458 37.8605 31.457 38.1366 31.5035 38.4078C30.2667 39.7904 30.6314 40.033 28.1579 40.542C25.6558 41.0573 27.1272 41.9754 28.0849 42.2164C29.2488 42.5081 31.9411 42.9204 33.7614 40.3739L33.6884 40.6641C34.1736 41.0525 34.1403 43.4547 34.2117 45.1703C34.283 46.8859 34.3956 48.489 34.746 49.4324C35.0965 50.3758 35.5071 52.8097 38.7576 52.1279C41.4737 51.546 43.5509 50.7072 43.7411 42.9156" stroke="black" stroke-width="3.40745"/>
<path d="M50.9554 38.0872C46.373 39.0323 46.04 37.4799 46.04 37.4799C50.8808 30.2972 52.9057 21.18 51.1583 18.9491C46.3952 12.8604 38.1485 15.7414 38.0105 15.8159L37.9661 15.8239C36.9589 15.6218 35.9348 15.515 34.9075 15.5052C32.8336 15.4734 31.2607 16.049 30.0651 16.9544C30.0651 16.9544 15.3539 10.8942 16.0389 24.5764C16.1848 27.4875 20.209 46.6162 25.0134 40.8287C26.7829 38.7009 28.4795 36.9139 28.4795 36.9139C29.3199 37.4736 30.3299 37.759 31.3875 37.656L31.47 37.5862C31.4457 37.8603 31.4569 38.1363 31.5033 38.4075C30.2665 39.7902 30.6312 40.0328 28.1576 40.5417C25.6556 41.0571 27.127 41.9751 28.0847 42.2161C29.2485 42.5079 31.9409 42.9201 33.7611 40.3737L33.6882 40.6638C34.1734 41.0523 34.5127 43.1897 34.4556 45.1273C34.3986 47.0649 34.3605 48.3936 34.741 49.4338C35.1216 50.4739 35.5021 52.8111 38.7526 52.1293C41.4687 51.5474 42.8752 50.0363 43.0734 47.5215C43.2129 45.733 43.5268 45.9962 43.549 44.3979L43.8027 43.64C44.0929 41.214 43.8503 40.4323 45.5231 40.797L45.9306 40.8335C47.1626 40.889 48.7752 40.6353 49.7202 40.1961C51.7577 39.2511 52.9659 37.6718 50.9569 38.0872H50.9554Z" fill="#336791"/>
<path d="M33.9563 39.4618C33.8294 43.9744 33.988 48.5188 34.4288 49.6097C34.8696 50.7005 35.8162 52.8601 39.0683 52.1656C41.7844 51.5837 42.7738 50.4564 43.2019 47.9686L44.2056 40.0136M30.0589 16.8401C30.0589 16.8401 15.3382 10.8212 16.0232 24.5033C16.1691 27.4145 20.1933 46.5431 24.9977 40.7557C26.7513 38.6421 28.3369 36.9883 28.3369 36.9883M38.0091 15.7413C37.5017 15.8998 46.1971 12.5622 51.141 18.8776C52.8852 21.1085 50.8635 30.2257 46.0227 37.4085" stroke="white" stroke-width="1.13529" stroke-linecap="round" stroke-linejoin="round"/>
<path d="M46.0243 37.4056C46.0243 37.4056 46.3414 38.9595 50.9396 38.0113C52.9486 37.5959 51.7388 39.1752 49.7029 40.1202C48.0316 40.8971 44.2833 41.0953 44.2214 40.025C44.0629 37.2582 46.1939 38.0985 46.0401 37.4056C45.9006 36.7809 44.9461 36.1689 44.3182 34.6403C43.768 33.3084 36.7707 23.0813 46.2589 24.5988C46.6078 24.5274 43.7854 15.5608 34.9061 15.4308C26.0267 15.3008 26.3074 26.3477 26.3074 26.3477" stroke="white" stroke-width="1.13529" stroke-linecap="round" stroke-linejoin="bevel"/>
<path d="M31.4718 38.3532C30.2351 39.7358 30.5998 39.9784 28.1262 40.4874C25.6242 41.0027 27.0956 41.9208 28.0533 42.1618C29.2171 42.4535 31.9095 42.8658 33.7297 40.3177C34.2847 39.5408 33.7266 38.304 32.9655 37.9901C32.5976 37.8378 32.1061 37.6476 31.475 38.3547L31.4718 38.3532Z" stroke="white" stroke-width="1.13529" stroke-linejoin="round"/>
<path d="M31.3909 38.3298C31.264 37.5164 31.6572 36.5508 32.0774 35.4187C32.7085 33.7221 34.1641 32.0255 33.0002 26.6392C32.1329 22.6277 26.309 25.8036 26.309 26.3475C26.309 26.8913 26.5722 29.1064 26.2139 31.683C25.743 35.0477 28.3544 37.8922 31.3607 37.6021" stroke="white" stroke-width="1.13529" stroke-linecap="round" stroke-linejoin="round"/>
<path d="M30.005 26.2668C29.978 26.4523 30.3459 26.9486 30.8232 27.0152C31.3004 27.0818 31.7079 26.6949 31.7349 26.5078C31.7618 26.3207 31.394 26.1177 30.9167 26.0511C30.4394 25.9846 30.0288 26.0829 30.005 26.2668Z" fill="white" stroke="white" stroke-width="0.378958"/>
<path d="M44.5352 25.8879C44.5606 26.0734 44.1943 26.5697 43.717 26.6363C43.2398 26.7029 42.8291 26.316 42.8053 26.1289C42.7815 25.9418 43.1462 25.7388 43.6235 25.6722C44.1007 25.6056 44.5114 25.704 44.5352 25.8879Z" fill="white" stroke="white" stroke-width="0.188686"/>
<path d="M46.2413 24.6016C46.3206 26.0603 45.9274 27.0513 45.8766 28.6036C45.8037 30.8583 46.9517 33.4397 45.2218 36.0242" stroke="white" stroke-width="1.13529" stroke-linecap="round" stroke-linejoin="round"/>
</svg>
