<svg width="68" height="68" viewBox="0 0 68 68" fill="none" xmlns="http://www.w3.org/2000/svg">
<rect width="68" height="68" rx="34" fill="white"/>
<path d="M50.7694 45.2L36.2344 14.333C36.0538 13.9532 35.7738 13.6293 35.4242 13.3955C35.0746 13.1618 34.6683 13.0269 34.2483 13.0052C33.8275 12.977 33.407 13.0647 33.0326 13.2588C32.6582 13.4529 32.3441 13.7459 32.1246 14.106L16.36 39.6395C16.1203 40.025 15.9955 40.4709 16.0001 40.9249C16.0048 41.3788 16.1388 41.822 16.3864 42.2025L24.0938 54.1382C24.3854 54.5863 24.814 54.9281 25.3157 55.1126C25.8174 55.2971 26.3654 55.3145 26.8778 55.1621L49.2448 48.546C49.5816 48.4476 49.8933 48.2779 50.1589 48.0486C50.4245 47.8193 50.6378 47.5357 50.7843 47.2168C50.9287 46.8997 51.0023 46.5548 50.9999 46.2063C50.9976 45.8578 50.9193 45.514 50.7705 45.1989L50.7694 45.2ZM47.5152 46.5238L28.5355 52.1361C27.9565 52.3084 27.4007 51.8065 27.5212 51.2222L34.3021 18.7536C34.4289 18.1462 35.2678 18.0499 35.533 18.6121L48.0857 45.2686C48.1412 45.3874 48.1703 45.5168 48.1709 45.6479C48.1716 45.779 48.1438 45.9086 48.0894 46.028C48.0351 46.1473 47.9556 46.2534 47.8563 46.339C47.7569 46.4245 47.6403 46.4876 47.5142 46.5237H47.5152V46.5238Z" fill="black"/>
</svg>
