<svg width="69" height="68" viewBox="0 0 69 68" fill="none" xmlns="http://www.w3.org/2000/svg">
<rect width="68.2731" height="68" rx="34" fill="white"/>
<path d="M33.443 11C21.454 11 22.2026 16.1991 22.2026 16.1991L22.2159 21.5856H33.6568V23.2028H17.6718C17.6718 23.2028 10 22.3327 10 34.4295C10 46.5267 16.6961 46.0977 16.6961 46.0977H20.6923V40.4841C20.6923 40.4841 20.4769 33.788 27.2815 33.788H38.6289C38.6289 33.788 45.0041 33.891 45.0041 27.6265V17.2686C45.0041 17.2686 45.9724 11 33.443 11ZM27.1345 14.6223C27.4049 14.6221 27.6726 14.6751 27.9225 14.7785C28.1723 14.8818 28.3993 15.0334 28.5904 15.2246C28.7816 15.4158 28.9332 15.6427 29.0366 15.8926C29.1399 16.1424 29.193 16.4101 29.1927 16.6805C29.193 16.9509 29.1399 17.2186 29.0366 17.4684C28.9332 17.7183 28.7816 17.9452 28.5904 18.1364C28.3993 18.3276 28.1723 18.4792 27.9225 18.5825C27.6726 18.6859 27.4049 18.739 27.1345 18.7387C26.8642 18.739 26.5964 18.6859 26.3466 18.5825C26.0968 18.4792 25.8698 18.3276 25.6786 18.1364C25.4874 17.9452 25.3358 17.7183 25.2325 17.4684C25.1291 17.2186 25.0761 16.9509 25.0763 16.6805C25.0761 16.4101 25.1291 16.1424 25.2325 15.8926C25.3358 15.6427 25.4874 15.4158 25.6786 15.2246C25.8698 15.0334 26.0968 14.8818 26.3466 14.7785C26.5964 14.6751 26.8642 14.6221 27.1345 14.6223Z" fill="url(#paint0_linear_1436_15964)"/>
<path d="M33.7837 57.9804C45.7727 57.9804 45.0241 52.7813 45.0241 52.7813L45.0108 47.395H33.5697V45.7778H49.5548C49.5548 45.7778 57.2265 46.6479 57.2265 34.5507C57.2265 22.4537 50.5304 22.8827 50.5304 22.8827H46.5342V28.4961C46.5342 28.4961 46.7497 35.1922 39.945 35.1922H28.5977C28.5977 35.1922 22.2224 35.0892 22.2224 41.3539V51.7121C22.2224 51.7121 21.2543 57.9804 33.7835 57.9804H33.7837ZM40.0922 54.3585C39.8218 54.3587 39.5541 54.3057 39.3043 54.2023C39.0545 54.099 38.8275 53.9474 38.6363 53.7562C38.4451 53.565 38.2935 53.3381 38.1902 53.0882C38.0868 52.8384 38.0338 52.5707 38.034 52.3003C38.0337 52.0299 38.0868 51.7622 38.1901 51.5123C38.2935 51.2625 38.4451 51.0355 38.6362 50.8443C38.8274 50.6531 39.0544 50.5015 39.3042 50.3981C39.5541 50.2947 39.8218 50.2417 40.0922 50.2419C40.3626 50.2417 40.6303 50.2947 40.8801 50.3981C41.13 50.5014 41.3569 50.653 41.5481 50.8442C41.7393 51.0354 41.8909 51.2624 41.9942 51.5122C42.0976 51.762 42.1507 52.0298 42.1504 52.3001C42.1507 52.5705 42.0976 52.8382 41.9942 53.088C41.8909 53.3379 41.7393 53.5649 41.5481 53.756C41.3569 53.9472 41.13 54.0988 40.8801 54.2021C40.6303 54.3055 40.3626 54.3586 40.0922 54.3583V54.3585Z" fill="url(#paint1_linear_1436_15964)"/>
<defs>
<linearGradient id="paint0_linear_1436_15964" x1="14.5384" y1="15.2256" x2="37.9424" y2="38.3961" gradientUnits="userSpaceOnUse">
<stop stop-color="#387EB8"/>
<stop offset="1" stop-color="#366994"/>
</linearGradient>
<linearGradient id="paint1_linear_1436_15964" x1="28.904" y1="30.104" x2="54.0371" y2="53.8632" gradientUnits="userSpaceOnUse">
<stop stop-color="#FFE052"/>
<stop offset="1" stop-color="#FFC331"/>
</linearGradient>
</defs>
</svg>
