<svg width="68" height="68" viewBox="0 0 68 68" fill="none" xmlns="http://www.w3.org/2000/svg">
<rect width="68" height="68" rx="34" fill="white"/>
<path d="M34.147 39.1101C36.7767 39.1101 38.9086 36.9782 38.9086 34.3485C38.9086 31.7187 36.7767 29.5869 34.147 29.5869C31.5173 29.5869 29.3854 31.7187 29.3854 34.3485C29.3854 36.9782 31.5173 39.1101 34.147 39.1101Z" fill="#61DAFB"/>
<path d="M52.2325 26.496C51.3136 26.1618 50.3529 25.8277 49.3505 25.5353C49.6011 24.5329 49.8099 23.5304 49.977 22.5698C50.8541 17.0564 49.8934 13.1719 47.2203 11.6683C46.4267 11.2088 45.5496 11 44.5471 11C41.6233 11 37.906 13.1719 34.1469 16.8058C30.3877 13.1719 26.6704 11 23.7466 11C22.7442 11 21.867 11.2088 21.0734 11.6683C18.4003 13.2137 17.4396 17.0981 18.3167 22.5698C18.4838 23.5304 18.6926 24.5329 18.9433 25.5353C17.9408 25.8277 16.9801 26.1201 16.0613 26.496C10.8402 28.5008 8 31.2575 8 34.3484C8 37.4392 10.882 40.1959 16.0613 42.2008C16.9801 42.5349 17.9408 42.8691 18.9433 43.1615C18.6926 44.1639 18.4838 45.1663 18.3167 46.127C17.4396 51.6404 18.4003 55.5248 21.0734 57.0285C21.867 57.4879 22.7442 57.6968 23.7466 57.6968C26.7121 57.6968 30.4295 55.5248 34.1469 51.891C37.906 55.5248 41.6233 57.6968 44.5471 57.6968C45.5496 57.6968 46.4267 57.4879 47.2203 57.0285C49.8934 55.4831 50.8541 51.5986 49.977 46.127C49.8099 45.1663 49.6011 44.1639 49.3505 43.1615C50.3529 42.8691 51.3136 42.5767 52.2325 42.2008C57.4535 40.1959 60.2937 37.4392 60.2937 34.3484C60.2937 31.2575 57.4535 28.5008 52.2325 26.496ZM46.0508 13.7567C47.7633 14.7591 48.348 17.85 47.638 22.2356C47.5127 23.1128 47.3038 24.0317 47.0532 24.9923C44.8813 24.4911 42.584 24.157 40.1615 23.9481C38.7413 21.9433 37.2795 20.1472 35.8176 18.5183C38.9084 15.4692 42.041 13.3808 44.5889 13.3808C45.1319 13.3808 45.6331 13.5061 46.0508 13.7567ZM41.3727 38.5252C40.6209 39.8618 39.7438 41.1984 38.8249 42.5349C37.2795 42.6602 35.734 42.702 34.1469 42.702C32.5179 42.702 30.9725 42.6602 29.4688 42.5349C28.5499 41.1984 27.7146 39.8618 26.9627 38.5252C26.1691 37.1469 25.4173 35.7267 24.749 34.3484C25.4173 32.97 26.1691 31.5499 26.9627 30.1716C27.7146 28.835 28.5917 27.4984 29.5106 26.1618C31.056 26.0365 32.6014 25.9948 34.1886 25.9948C35.8176 25.9948 37.363 26.0365 38.8667 26.1618C39.7856 27.4984 40.6209 28.835 41.3727 30.1716C42.1663 31.5499 42.9182 32.97 43.5864 34.3484C42.8764 35.7267 42.1663 37.1051 41.3727 38.5252ZM44.8395 37.1469C45.466 38.6087 45.9672 40.0289 46.4267 41.449C45.0066 41.7831 43.5029 42.0337 41.9157 42.2426C42.4169 41.449 42.9599 40.6136 43.4194 39.7365C43.9206 38.8593 44.38 37.9822 44.8395 37.1469ZM34.1469 48.466C33.1444 47.3801 32.1837 46.2105 31.2648 44.9993C32.2255 45.041 33.1862 45.0828 34.1469 45.0828C35.1075 45.0828 36.0682 45.041 37.0289 44.9993C36.11 46.2105 35.1493 47.3801 34.1469 48.466ZM26.378 42.2008C24.7908 41.992 23.2871 41.7414 21.867 41.4072C22.3265 40.0289 22.8277 38.567 23.4542 37.1051C23.9137 37.9404 24.3731 38.8176 24.8743 39.6529C25.3755 40.5718 25.8768 41.3654 26.378 42.2008ZM23.4542 31.5499C22.8277 30.088 22.3265 28.6679 21.867 27.2478C23.2871 26.9137 24.7908 26.6631 26.378 26.4542C25.8768 27.2478 25.3338 28.0832 24.8743 28.9603C24.3731 29.8374 23.9137 30.7146 23.4542 31.5499ZM34.1469 20.2308C35.1493 21.3167 36.11 22.4862 37.0289 23.6975C36.0682 23.6557 35.1075 23.614 34.1469 23.614C33.1862 23.614 32.2255 23.6557 31.2648 23.6975C32.1837 22.4862 33.1444 21.3167 34.1469 20.2308ZM43.4194 29.0021L41.9157 26.496C43.5029 26.7048 45.0066 26.9554 46.4267 27.2896C45.9672 28.6679 45.466 30.1298 44.8395 31.5917C44.38 30.7146 43.9206 29.8374 43.4194 29.0021ZM20.6557 22.2356C19.9457 17.85 20.5304 14.7591 22.2429 13.7567C22.6606 13.5061 23.1618 13.3808 23.7048 13.3808C26.2109 13.3808 29.3435 15.4274 32.4761 18.5183C31.0142 20.1055 29.5524 21.9433 28.1322 23.9481C25.7097 24.157 23.4124 24.5329 21.2405 24.9923C20.9899 24.0317 20.8228 23.1128 20.6557 22.2356ZM10.339 34.3484C10.339 32.3853 12.7198 30.2969 16.8966 28.7515C17.732 28.4173 18.6509 28.1249 19.5698 27.8743C20.2381 29.9627 21.0734 32.1764 22.0759 34.3902C21.0734 36.6039 20.1963 38.7758 19.5698 40.8642C13.8058 39.1935 10.339 36.6874 10.339 34.3484ZM22.2429 54.9401C20.5304 53.9376 19.9457 50.8468 20.6557 46.4611C20.781 45.584 20.9899 44.6651 21.2405 43.7045C23.4124 44.2057 25.7097 44.5398 28.1322 44.7487C29.5524 46.7535 31.0142 48.5496 32.4761 50.1785C29.3853 53.2276 26.2527 55.316 23.7048 55.316C23.1618 55.316 22.6606 55.1907 22.2429 54.9401ZM47.638 46.4611C48.348 50.8468 47.7633 53.9376 46.0508 54.9401C45.6331 55.1907 45.1319 55.316 44.5889 55.316C42.0828 55.316 38.9502 53.2694 35.8176 50.1785C37.2795 48.5913 38.7413 46.7535 40.1615 44.7487C42.584 44.5398 44.8813 44.1639 47.0532 43.7045C47.3038 44.6651 47.4709 45.584 47.638 46.4611ZM51.3971 39.9453C50.5617 40.2795 49.6428 40.5718 48.7239 40.8225C48.0556 38.734 47.2203 36.5203 46.2178 34.3066C47.2203 32.0929 48.0974 29.921 48.7239 27.8326C54.4879 29.5033 57.9547 32.0094 57.9547 34.3484C57.9547 36.3115 55.5321 38.3999 51.3971 39.9453Z" fill="#61DAFB"/>
</svg>
