<svg width="68" height="68" viewBox="0 0 68 68" fill="none" xmlns="http://www.w3.org/2000/svg">
<rect width="68" height="68" rx="34" fill="white"/>
<path d="M25.9829 16.6877C27.8559 14.3209 31.383 13.1522 33.7873 13.0917C40.5291 12.9626 43.3396 21.4524 43.5562 24.8274L46.6771 25.7733C45.9584 15.4272 39.5936 10 33.5039 10C27.7934 9.99792 22.5203 14.1938 20.3953 20.3461C17.4931 28.5484 19.3973 36.434 22.9557 42.7445C22.6453 43.1549 22.4578 43.8779 22.5203 44.5716C22.5807 46.4654 24.1724 48.0426 26.0787 48.0426H26.2037C26.6754 48.029 27.1396 47.9214 27.569 47.7258C27.9985 47.5303 28.3845 47.2509 28.7044 46.904C29.0243 46.5572 29.2716 46.1498 29.4318 45.706C29.592 45.2622 29.6618 44.7908 29.6372 44.3196C29.6372 42.4258 28.0142 40.8528 26.11 40.8528H25.9829C25.8579 40.8528 25.6725 40.8528 25.5141 40.9132C22.9245 36.4965 21.8307 31.763 22.2391 26.6566C22.487 22.8066 23.737 19.4627 25.9829 16.6877Z" fill="#6C4EB0"/>
<path d="M10.941 52.4945C13.0327 55.6487 17.3099 57.6654 21.9912 57.6654C23.2392 57.6654 24.5517 57.5738 25.8309 57.2571C33.9477 55.68 40.0979 50.759 43.6251 43.5047L43.6542 43.4401C45.4647 43.2818 46.8689 41.6713 46.7772 39.7463C46.6814 37.8212 45.1209 36.2774 43.2188 36.2774H43.0917C41.1271 36.342 39.5958 38.0129 39.6583 40.0025C39.7208 41.0109 40.1291 41.8317 40.6875 42.4297C38.5041 46.7214 35.2269 49.8736 30.2622 52.5257C26.9226 54.2904 23.3954 54.955 19.962 54.482C17.0911 54.0737 14.8452 52.7757 13.4702 50.6965C11.4118 47.5402 11.2243 44.136 12.9389 40.7296C14.191 38.2692 16.0619 36.4712 17.3119 35.5858C16.9994 34.767 16.6244 33.3795 16.4369 32.3398C7.19295 39.0254 8.13255 48.1715 10.941 52.4945Z" fill="#6C4EB0"/>
<path d="M57.8861 51.103C59.757 47.3175 59.6028 40.9465 54.8256 35.4881L54.7964 35.5506C49.9609 29.8088 42.842 26.6545 34.7231 26.6545H33.6605C33.1334 25.4878 31.9167 24.7607 30.5417 24.7607H30.4479C28.4833 24.7607 26.952 26.467 27.0166 28.4525C27.0791 30.3442 28.6708 31.9234 30.575 31.9234H30.7292C31.4067 31.8945 32.0615 31.6708 32.6151 31.2791C33.1686 30.8874 33.5974 30.3443 33.8501 29.715H35.0064C39.8169 29.715 44.3712 31.1338 48.5255 33.9089C51.7068 36.0235 53.9881 38.7986 55.2673 42.1111C56.3881 44.8237 56.3277 47.4738 55.1735 49.6842C53.3943 53.1531 50.3963 54.9844 46.4337 54.9844C43.9358 54.9844 41.5024 54.1948 40.2523 53.6281C39.5044 54.2552 38.2544 55.2969 37.3481 55.9302C40.094 57.1886 42.8732 57.9157 45.5566 57.9157C51.6443 57.9157 56.1673 54.4489 57.8861 51.103Z" fill="#6C4EB0"/>
</svg>
