<svg width="68" height="68" viewBox="0 0 68 68" fill="none" xmlns="http://www.w3.org/2000/svg">
<rect width="68" height="68" rx="34" fill="white"/>
<path d="M50.3766 44.1689C48.2808 44.1118 46.6804 44.3069 45.312 44.8838C44.9232 45.0477 44.3027 45.0523 44.2392 45.5394C44.453 45.7632 44.4862 46.0979 44.656 46.3734C44.9828 46.9017 45.5343 47.6107 46.0266 47.9821C46.5646 48.3882 47.1189 48.8222 47.6954 49.1736C48.7209 49.7987 49.8657 50.156 50.853 50.7823C51.435 51.1518 52.0131 51.6169 52.5808 52.0334C52.8617 52.2396 53.0501 52.5599 53.415 52.6891V52.6298C53.2233 52.3855 53.1738 52.0502 52.9979 51.7953L52.2232 51.0205C51.4658 50.0152 50.5042 49.1321 49.4821 48.3989C48.6671 47.8138 46.8431 47.0235 46.5032 46.0753L46.4437 46.0158C47.0215 45.9504 47.6979 45.7416 48.2313 45.5983C49.1273 45.3583 49.928 45.4203 50.853 45.1815L52.1041 44.8239V44.5857C51.6366 44.106 51.3031 43.4708 50.7934 43.0366C49.4589 41.9006 48.0029 40.7655 46.5035 39.8189C45.6717 39.2942 44.6441 38.9531 43.7625 38.5082C43.466 38.3583 42.945 38.2804 42.7493 38.0312C42.286 37.4412 42.0341 36.6931 41.6771 36.0057C40.9293 34.5652 40.1948 32.9922 39.5322 31.4767C39.0802 30.4433 38.7849 29.4246 38.2212 28.4975C35.5156 24.0491 32.6036 21.3646 28.0923 18.7255C27.1322 18.1643 25.9764 17.9429 24.7549 17.6528C24.0999 17.6134 23.4442 17.5734 22.7889 17.5334C22.3886 17.3666 21.9727 16.8771 21.5974 16.6395C20.1029 15.6953 16.2692 13.6417 15.1625 16.3418C14.4635 18.0461 16.2072 19.7085 16.8305 20.5724C17.2684 21.1777 17.8288 21.8571 18.1415 22.5384C18.3473 22.9864 18.3827 23.4356 18.5589 23.9092C18.9916 25.0764 19.3687 26.3461 19.9291 27.4244C20.2122 27.9704 20.5243 28.5451 20.8825 29.0331C21.1017 29.3327 21.4783 29.4646 21.5375 29.9269C21.1698 30.4418 21.1488 31.2412 20.942 31.8935C20.0106 34.8297 20.3621 38.4795 21.7168 40.6525C22.1321 41.3201 23.1114 42.7507 24.4575 42.2017C25.635 41.7222 25.3721 40.2357 25.7089 38.9244C25.7849 38.6273 25.7382 38.4086 25.8875 38.2095V38.2691L26.9603 40.414C27.7543 41.6926 29.1627 43.0286 30.3567 43.9301C30.9757 44.3976 31.463 45.2056 32.2634 45.4792V45.4194H32.2039C32.0487 45.1778 31.806 45.0777 31.6081 44.8835C31.1418 44.4263 30.6233 43.858 30.2379 43.3343C29.152 41.8603 28.1925 40.247 27.3182 38.5677C26.9005 37.7655 26.5374 36.8812 26.1856 36.0649C26.05 35.7504 26.0518 35.2743 25.7691 35.1115C25.3834 35.7095 24.8157 36.1932 24.5176 36.8992C24.0409 38.0278 23.9796 39.4045 23.8028 40.8318C23.6983 40.869 23.7447 40.8434 23.6834 40.891C22.8534 40.691 22.562 39.8369 22.2533 39.1037C21.4734 37.2501 21.3283 34.266 22.0148 32.1323C22.1925 31.5799 22.995 29.8417 22.6701 29.3314C22.515 28.8227 22.0032 28.5283 21.7171 28.1396C21.3625 27.6589 21.0089 27.0262 20.7631 26.471C20.1248 25.0263 19.8268 23.4039 19.1547 21.943C18.8331 21.2446 18.2899 20.5376 17.8437 19.9171C17.3499 19.2291 16.7966 18.7225 16.4137 17.891C16.2775 17.5954 16.0927 17.122 16.2943 16.8182C16.3584 16.6133 16.4494 16.5278 16.6518 16.4609C16.9975 16.1943 17.9601 16.5495 18.3198 16.6988C19.2753 17.0958 20.0729 17.4738 20.8825 18.0101C21.2706 18.2678 21.6639 18.7659 22.1336 18.9039H22.6698C23.5087 19.0966 24.4483 18.9634 25.2322 19.2016C26.6174 19.6224 27.8587 20.2774 28.9858 20.9893C32.4201 23.158 35.2283 26.2447 37.1491 29.9272C37.4581 30.5203 37.5919 31.0858 37.8639 31.7149C38.413 32.9831 39.1047 34.2879 39.651 35.5284C40.1964 36.7657 40.7277 38.0144 41.4985 39.0441C41.9037 39.5852 43.4684 39.8757 44.18 40.1764C44.6783 40.3868 45.4952 40.6067 45.9676 40.891C46.8694 41.4352 47.7434 42.0829 48.5895 42.679C49.0119 42.9767 50.3118 43.6305 50.3766 44.1689ZM23.7423 21.4672C23.3053 21.4589 22.9963 21.5148 22.6695 21.586V21.6455H22.7291C22.9376 22.0737 23.3056 22.3497 23.563 22.7183C23.7615 23.1357 23.9603 23.5526 24.1591 23.9694L24.2184 23.9105C24.5876 23.65 24.7564 23.2344 24.7543 22.5992C24.6065 22.4438 24.5848 22.2489 24.4566 22.0633C24.2868 21.8156 23.9573 21.6748 23.7423 21.4672Z" fill="#00618A"/>
</svg>
