<svg width="68" height="68" viewBox="0 0 68 68" fill="none" xmlns="http://www.w3.org/2000/svg">
<g clip-path="url(#clip0_1436_15967)">
<path d="M68 34C68 15.2223 52.7777 0 34 0C15.2223 0 0 15.2223 0 34C0 52.7777 15.2223 68 34 68C52.7777 68 68 52.7777 68 34Z" fill="#3178C6"/>
<path fill-rule="evenodd" clip-rule="evenodd" d="M36.4758 39.9519V45.5517C37.3743 46.0184 38.437 46.3684 39.6639 46.6017C40.8907 46.8351 42.1838 46.9517 43.5431 46.9517C44.8678 46.9517 46.1263 46.8234 47.3186 46.5667C48.5109 46.3101 49.5563 45.8871 50.455 45.298C51.3535 44.7089 52.0644 43.9389 52.5888 42.9881C53.1128 42.0373 53.375 40.8619 53.375 39.462C53.375 38.447 53.2251 37.5574 52.9258 36.7933C52.6264 36.0291 52.1942 35.3495 51.63 34.7546C51.0653 34.1596 50.3888 33.6259 49.5995 33.1534C48.8104 32.6809 47.9205 32.2347 46.9298 31.8147C46.2041 31.5113 45.5532 31.2168 44.9773 30.931C44.4013 30.6451 43.9117 30.3535 43.5085 30.056C43.1053 29.7585 42.7943 29.4435 42.5754 29.111C42.3566 28.7785 42.2471 28.4023 42.2471 27.9823C42.2471 27.5973 42.345 27.2502 42.5409 26.9411C42.7367 26.6319 43.0132 26.3665 43.3703 26.1448C43.7274 25.9232 44.1651 25.7511 44.6835 25.6286C45.2019 25.5061 45.7779 25.4449 46.4114 25.4449C46.8722 25.4449 47.3589 25.4798 47.8715 25.5499C48.3842 25.6199 48.8997 25.7278 49.418 25.8736C49.9364 26.0194 50.4402 26.2032 50.9302 26.4248C51.4197 26.6465 51.8716 26.9032 52.2864 27.1948V21.9625C51.4456 21.6358 50.5266 21.3937 49.5303 21.2362C48.5339 21.0787 47.3906 21 46.1004 21C44.7872 21 43.5431 21.1429 42.3681 21.4287C41.1931 21.7146 40.1592 22.1608 39.2664 22.7674C38.3737 23.3741 37.6681 24.147 37.1497 25.0861C36.6314 26.0253 36.3722 27.1481 36.3722 28.4548C36.3722 30.1231 36.8473 31.5463 37.7977 32.7246C38.7481 33.903 40.1909 34.9004 42.1262 35.717C42.8865 36.032 43.5949 36.3412 44.2515 36.6445C44.9081 36.9479 45.4755 37.2628 45.9535 37.5895C46.4316 37.9162 46.8089 38.272 47.0853 38.657C47.3618 39.0419 47.5 39.4794 47.5 39.9694C47.5 40.3311 47.4136 40.6665 47.2408 40.9757C47.0681 41.2848 46.806 41.5531 46.4546 41.7806C46.1033 42.0081 45.6656 42.186 45.1414 42.3144C44.6173 42.4427 44.0038 42.5068 43.3012 42.5068C42.1031 42.5068 40.9166 42.2939 39.7416 41.8681C38.5666 41.4423 37.4781 40.8036 36.4758 39.9519ZM26.9111 26.043H34.1349V21.4474H14V26.043H21.1885V46.5043H26.9111V26.043Z" fill="white"/>
</g>
<defs>
<clipPath id="clip0_1436_15967">
<rect width="68" height="68" fill="white"/>
</clipPath>
</defs>
</svg>
